<svg width="24" height="24" viewBox="0 0 20 20" fill="none" xmlns="http://www.w3.org/2000/svg">
<path d="M5.82053 6.84351L2.01172 8.10167L5.82053 9.39415L9.64077 8.10167L5.82053 6.84351Z" fill="#FFFFFF"/>
<path d="M0 10.1717L1.02941 8.53613L5.27286 9.95443L4.23201 11.6015L0 10.1717Z" fill="#FFFFFF"/>
<path d="M11.668 10.1717L10.6386 8.53613L6.39511 9.95443L7.43596 11.6015L11.668 10.1717Z" fill="#FFFFFF"/>
<path d="M4.55136 12.4253L5.46639 10.9841V15.0217L1.23438 13.6034V11.3616L4.55136 12.4253Z" fill="#FFFFFF"/>
<path d="M7.10489 12.4253L6.18986 10.9841V15.0217L10.4219 13.6034V11.3616L7.10489 12.4253Z" fill="#FFFFFF"/>
<path d="M2.82608 4.04077L2.26562 4.37247L3.42085 6.32834L3.98131 5.98521L2.82608 4.04077Z" fill="#FFFFFF"/>
<path d="M6.15558 3.33276H5.49219V5.58602H6.15558V3.33276Z" fill="#FFFFFF"/>
<path d="M9.38106 4.38505L8.78629 4.05335L7.68826 6.00922L8.26015 6.34092L9.38106 4.38505Z" fill="#FFFFFF"/>
<path d="M15.9787 4.16724L12.7578 5.77769L14.7562 7.03549L15.9787 6.38896V4.16724Z" fill="#FFFFFF"/>
<path d="M15.9904 14.9827L12.7695 13.3722L14.7679 12.1144L15.9904 12.7609V14.9827Z" fill="#FFFFFF"/>
<path d="M16.533 14.9827L19.7539 13.3722L17.7555 12.1144L16.533 12.7609V14.9827Z" fill="#FFFFFF"/>
<path d="M16.533 4.16724L19.7539 5.77769L17.7555 7.03549L16.533 6.38896V4.16724Z" fill="#FFFFFF"/>
<path d="M14.4866 7.44742L12.5 6.21313V12.9371L14.4866 11.691V7.44742Z" fill="#FFFFFF"/>
<path d="M18.0134 7.44742L20 6.21313V12.9371L18.0134 11.691V7.44742Z" fill="#FFFFFF"/>
<path d="M16.2382 6.85938L14.9922 7.4824V11.679L16.2382 12.302L17.496 11.679V7.4824L16.2382 6.85938Z" fill="#FFFFFF"/>
</svg>
