<svg width="8" height="11" viewBox="0 0 8 11" fill="none" xmlns="http://www.w3.org/2000/svg">
<path d="M3.97872 0.167236L0.757812 1.77769L2.75619 3.03549L3.97872 2.38896V0.167236Z" fill="#D9AE6A"/>
<path d="M3.99044 10.9827L0.769531 9.37221L2.7679 8.11441L3.99044 8.76095V10.9827Z" fill="#D9AE6A"/>
<path d="M4.533 10.9827L7.75391 9.37221L5.75553 8.11441L4.533 8.76095V10.9827Z" fill="#D9AE6A"/>
<path d="M4.533 0.167236L7.75391 1.77769L5.75553 3.03549L4.533 2.38896V0.167236Z" fill="#D9AE6A"/>
<path d="M2.48662 3.44742L0.5 2.21313V8.93707L2.48662 7.69103V3.44742Z" fill="#D9AE6A"/>
<path d="M6.01338 3.44742L8 2.21313V8.93707L6.01338 7.69103V3.44742Z" fill="#D9AE6A"/>
<path d="M4.23823 2.85938L2.99219 3.4824V7.67898L4.23823 8.302L5.49603 7.67898V3.4824L4.23823 2.85938Z" fill="#D9AE6A"/>
</svg>
