<?xml version="1.0" standalone="no"?>
<!DOCTYPE svg PUBLIC "-//W3C//DTD SVG 20010904//EN"
 "http://www.w3.org/TR/2001/REC-SVG-20010904/DTD/svg10.dtd">
<svg version="1.0" xmlns="http://www.w3.org/2000/svg"
 width="36.000000pt" height="36.000000pt" viewBox="0 0 36.000000 36.000000"
 preserveAspectRatio="xMidYMid meet">

<g transform="translate(0.000000,36.000000) scale(0.100000,-0.100000)"
fill="#FFFFFF" stroke="none">
<path d="M109 308 c-42 -24 -79 -82 -79 -124 0 -51 37 -111 84 -133 53 -26 79
-26 132 0 45 21 84 81 84 129 0 48 -39 108 -84 129 -54 26 -91 26 -137 -1z
m155 -47 c26 -27 31 -39 31 -81 0 -43 -5 -54 -33 -82 -47 -48 -117 -48 -164 0
-28 28 -33 39 -33 81 0 52 25 92 70 112 37 16 96 3 129 -30z"/>
<path d="M170 255 c0 -8 5 -15 10 -15 6 0 10 7 10 15 0 8 -4 15 -10 15 -5 0
-10 -7 -10 -15z"/>
<path d="M170 155 c0 -37 4 -65 10 -65 6 0 10 28 10 65 0 37 -4 65 -10 65 -6
0 -10 -28 -10 -65z"/>
</g>
</svg>
