<svg width="12" height="12" viewBox="0 0 12 12" fill="none" xmlns="http://www.w3.org/2000/svg">
<path d="M5.97639 3.60498L2.06641 4.89657L5.97639 6.22338L9.89811 4.89657L5.97639 3.60498Z" fill="#D9AE6A"/>
<path d="M0 7.02135L1.05675 5.34229L5.41292 6.79825L4.34442 8.48906L0 7.02135Z" fill="#D9AE6A"/>
<path d="M11.9766 7.02135L10.9198 5.34229L6.56365 6.79825L7.63214 8.48906L11.9766 7.02135Z" fill="#D9AE6A"/>
<path d="M4.67071 9.33248L5.61005 7.85303V11.9978L1.26562 10.5419V8.2405L4.67071 9.33248Z" fill="#D9AE6A"/>
<path d="M7.29413 9.33248L6.3548 7.85303V11.9978L10.6992 10.5419V8.2405L7.29413 9.33248Z" fill="#D9AE6A"/>
<path d="M2.89956 0.726562L2.32422 1.06707L3.51013 3.0749L4.08547 2.72265L2.89956 0.726562Z" fill="#D9AE6A"/>
<path d="M6.31774 0H5.63672V2.31311H6.31774V0Z" fill="#D9AE6A"/>
<path d="M9.62889 1.08023L9.01832 0.739726L7.89112 2.74755L8.47821 3.08806L9.62889 1.08023Z" fill="#D9AE6A"/>
</svg>
