<svg width="162" height="162" viewBox="0 0 162 162" fill="none" xmlns="http://www.w3.org/2000/svg">
<path fill-rule="evenodd" clip-rule="evenodd" d="M20.4023 13.4929C21.3175 12.3985 21.869 10.9854 21.869 9.44263C21.869 5.96806 19.0718 3.15137 15.6213 3.15137C12.1716 3.15137 9.37497 5.96662 9.37354 9.43996L9.35907 9.43994C5.90854 9.43994 3.11133 12.2566 3.11133 15.7312C3.11133 17.0286 3.50132 18.2342 4.16969 19.2358C1.74072 20.0981 0 22.4297 0 25.1707C0 27.5122 1.2704 29.555 3.15502 30.6383C3.52226 33.7603 6.15986 36.1816 9.35907 36.1816C10.1109 36.1816 10.8318 36.0479 11.4994 35.8028C12.7649 38.8042 16.0438 41.3092 20.4003 42.7443C20.3359 43.1719 20.3027 43.6071 20.3027 44.0483C20.3027 48.8479 24.2241 52.9301 29.6945 54.4371C29.6824 54.6421 29.6763 54.8487 29.6763 55.0566C29.6763 59.3128 32.246 63.0049 36.0069 64.8372C35.953 65.2403 35.9253 65.6499 35.9253 66.0649C35.9253 68.9949 37.3055 71.6575 39.5561 73.6302C39.2276 74.7134 39.0498 75.8708 39.0498 77.0732C39.0498 78.2815 39.2293 79.4444 39.561 80.5322C38.4248 80.3308 37.2026 80.2213 35.9296 80.2213C33.9108 80.2213 32.0197 80.4968 30.3966 80.9772C29.3139 77.7032 27.3002 75.5029 24.9948 75.5029C24.977 75.5029 24.9592 75.5031 24.9415 75.5033C24.9723 75.2487 24.9885 74.9852 24.9885 74.7152C24.9885 72.5436 23.9396 70.7832 22.6456 70.7832C21.3756 70.7832 20.3416 72.4792 20.3038 74.5953C17.615 76.1552 15.0937 81.0474 14.1333 87.111C12.9103 94.8325 14.6817 101.53 18.0897 102.069C20.0908 102.386 22.2111 100.51 23.8684 97.3439C24.2338 97.4611 24.6102 97.5224 24.9948 97.5224C27.6282 97.5224 29.881 94.6514 30.8004 90.5888C32.33 90.9987 34.076 91.231 35.9296 91.231C38.3816 91.231 40.6451 90.8246 42.4688 90.1383C42.977 91.2177 44.1164 92.1741 45.68 92.9033C46.2208 95.1478 47.3067 97.0856 48.7394 98.4631C48.5235 99.4303 48.4102 100.431 48.4102 101.457C48.4102 107.297 52.0876 112.354 57.4479 114.812C52.6483 118.964 51.6656 125.976 55.3283 130.82C56.5745 132.469 58.2041 133.662 60.0189 134.379C60.2471 134.777 60.5028 135.165 60.7863 135.54C61.5253 136.518 62.3992 137.335 63.3666 137.988C60.2835 140.355 58.6309 143.391 59.6751 144.772C60.7202 146.154 64.0712 145.355 67.1598 142.987C67.1996 142.957 67.2391 142.926 67.2784 142.895C67.1989 143.227 67.1572 143.569 67.1572 143.919C67.1572 146.77 69.9256 149.115 73.4722 149.395C73.9432 152.077 76.8811 154.143 80.435 154.143L80.484 154.143C81.7225 155.12 83.3481 155.712 85.1283 155.712C85.3907 155.712 85.6497 155.699 85.9045 155.674L85.9043 155.713C85.9043 158.319 89.0512 160.432 92.933 160.432C95.3787 160.432 97.5326 159.593 98.7916 158.321C99.7479 159.55 102.359 160.432 105.431 160.432C109.145 160.432 112.186 159.143 112.442 157.51C113.098 157.912 113.917 158.151 114.805 158.151C116.962 158.151 118.71 156.743 118.71 155.005C118.71 153.268 116.962 151.86 114.805 151.86C112.649 151.86 110.9 153.268 110.9 155.005C110.9 155.112 110.907 155.217 110.92 155.321C109.632 154.601 107.652 154.14 105.431 154.14C103.208 154.14 101.226 154.602 99.9381 155.323C99.6428 152.9 96.6193 150.995 92.933 150.995C92.5894 150.995 92.2515 151.011 91.921 151.043C92.075 150.526 92.157 149.982 92.157 149.421C92.157 146.781 90.3401 144.52 87.7644 143.587C88.5636 142.566 89.0325 141.323 89.0325 139.981C89.0325 138.101 88.1115 136.414 86.6514 135.261C88.1115 134.109 89.0325 132.421 89.0325 130.542C89.0325 128.303 87.7265 126.338 85.7592 125.223C86.8214 124.121 87.4637 122.685 87.4637 121.115C87.4637 118.746 86.0005 116.683 83.8388 115.61C84.17 114.88 84.3524 114.081 84.3524 113.245C84.3524 111.3 83.3659 109.56 81.8163 108.406C85.0367 107.832 87.4637 105.288 87.4637 102.237L87.4637 102.226C87.7245 102.235 87.987 102.239 88.2509 102.239C91.2671 102.239 94.093 101.654 96.5211 100.632C96.8857 100.657 97.2537 100.67 97.6245 100.67C99.1173 100.67 100.563 100.46 101.938 100.066C103.051 100.46 104.221 100.67 105.43 100.67C112.762 100.67 118.706 92.9245 118.706 83.3694L118.706 83.2649L118.705 83.1506L118.704 83.0615L118.703 82.9578C121.378 82.006 123.31 79.4698 123.387 76.4688C128.935 75.4602 132.772 73.2923 132.772 70.7805C132.772 70.6622 132.763 70.5447 132.747 70.4281C139.127 69.5667 143.701 67.2342 143.701 64.492C143.701 63.3213 142.867 62.2252 141.416 61.2865C144.73 60.1353 146.812 58.4716 146.812 56.6213C146.812 56.0346 146.603 55.4665 146.211 54.9277C153.687 54.3417 159.31 51.8047 159.31 48.7639C159.31 46.4722 156.116 44.4667 151.342 43.3668C151.45 43.0756 151.506 42.778 151.506 42.4753C151.506 39.0008 144.163 36.1841 135.105 36.1841C134.117 36.1841 133.149 36.2176 132.208 36.2819C129.281 35.2395 125.361 34.6021 121.052 34.6021C111.994 34.6021 104.651 37.4187 104.651 40.8933C104.651 41.6416 104.992 42.3593 105.617 43.0249C103.071 44.1334 101.527 45.5885 101.527 47.1819C101.527 47.9336 101.871 48.6546 102.501 49.3229C99.9501 50.4318 98.4024 51.8884 98.4024 53.4836C98.4024 54.0618 98.6057 54.6218 98.9864 55.1536C95.749 56.3028 93.7222 57.9467 93.7222 59.7722C93.7222 60.2809 93.8796 60.7755 94.1767 61.2493C90.6094 62.4033 88.3433 64.1305 88.3433 66.0608C88.3433 66.8707 88.7422 67.6449 89.4689 68.3559C87.1674 69.7502 85.217 71.7164 83.7919 74.0707C80.2657 74.4506 77.5195 77.4563 77.5195 81.1079C77.5195 81.2447 77.5234 81.3806 77.531 81.5155C74.8338 83.1925 72.9045 85.4912 72.1736 88.1019C69.9595 87.0866 67.4583 86.515 64.8105 86.515C64.2243 86.515 63.6453 86.543 63.0749 86.5976C62.747 86.2326 62.3424 85.8888 61.8713 85.5715C61.2467 83.5656 60.175 81.8504 58.8141 80.6281C59.1647 79.5129 59.355 78.3171 59.355 77.0732C59.355 75.8704 59.1771 74.7127 58.8484 73.6293C61.0984 71.6568 62.4782 68.9944 62.4782 66.0649C62.4782 61.1076 58.5274 56.9156 53.0944 55.536C53.1017 55.377 53.1053 55.2172 53.1053 55.0566C53.1053 51.3538 51.1604 48.0779 48.1782 46.0821C48.3354 45.423 48.4176 44.7432 48.4176 44.0483C48.4176 41.5031 47.3149 39.1596 45.4632 37.2949C46.3588 35.9859 46.8537 34.5484 46.8537 33.04C46.8537 28.1371 41.6251 23.9828 34.3992 22.5575C31.8345 20.443 27.8908 19.0397 23.4247 18.8923L23.4247 18.8821C23.4247 16.5958 22.2136 14.5944 20.4023 13.4929ZM11.7124 21.9343C11.6873 21.9516 11.6623 21.9691 11.6374 21.9866C11.5738 21.8776 11.507 21.7707 11.4371 21.6661C11.4757 21.6524 11.514 21.6384 11.5522 21.624C11.6028 21.7291 11.6562 21.8325 11.7124 21.9343ZM129.091 135.649C130.962 136.729 130.168 141.663 127.319 146.669C124.469 151.676 120.641 154.858 118.771 153.778C116.9 152.698 117.693 147.764 120.543 142.758C123.393 137.752 127.22 134.569 129.091 135.649Z" fill="#D9AE6A"/>
<path d="M18.8441 0.649918C5.32042 5.07822 -1.72245 16.3987 0.360652 30.416C0.559042 31.7811 0.823563 33.0464 0.922759 33.2128C1.05502 33.4126 2.47682 34.2783 4.13008 35.144C16.0005 41.4368 26.0192 52.3244 33.525 67.1076C35.7403 71.4027 38.5509 78.195 38.2533 78.4613C38.1541 78.5612 37.2283 78.4946 36.1702 78.2948C35.1121 78.0951 33.6903 77.9286 32.9629 77.9286C31.5741 77.9286 31.6072 78.0618 32.2685 75.6978C32.4008 75.2317 32.2354 74.7655 31.7395 74.2661C31.0451 73.5669 29.8878 73.5336 27.7386 74.1329C27.3087 74.2661 27.1765 73.8 26.9781 71.3694C26.7466 68.3062 26.1845 66.9411 25.1595 66.9411C24.2667 66.9411 21.6215 68.8389 20.332 70.4038C15.769 76.0307 13.6859 83.1227 13.3222 94.4764L13.1238 101.069L14.1157 102.101C14.9754 102.933 15.6037 103.2 18.0505 103.633C19.6376 103.932 21.1586 104.099 21.357 103.999C21.5885 103.899 22.382 102.933 23.1095 101.801C24.0683 100.303 25.0272 99.3375 26.6144 98.3054C28.8959 96.7738 30.7806 94.6096 31.4749 92.6785L31.9048 91.5131L34.8806 91.6796C38.2202 91.8461 41.4275 92.6119 43.6098 93.6773L45.0647 94.4098L45.9905 98.1389C47.4785 104.165 50.9172 110.591 53.9923 113.055L55.1165 113.988L53.2318 119.515C50.5204 127.339 50.5204 127.539 53.2648 131.201C55.381 134.031 56.3068 134.697 58.4891 135.064C60.4069 135.363 60.8368 135.996 59.6795 136.928C58.1585 138.127 57.5302 139.958 57.5302 143.387C57.5302 147.017 57.6625 147.216 60.936 148.049C63.0521 148.581 63.2174 148.581 63.7796 148.049C64.1433 147.716 64.507 146.983 64.6062 146.384C64.7384 145.785 65.036 145.019 65.3336 144.653C65.7965 144.087 65.7965 144.22 65.5981 146.451C65.3667 149.281 65.4659 149.48 68.0119 150.679C70.4256 151.778 71.6491 151.778 72.145 150.679L72.5087 149.847L74.162 151.678C80.742 159.103 91.3559 162.765 103.821 161.866C111.03 161.334 113.939 160.235 120.222 155.64C129.546 148.815 131.398 145.785 131.927 136.395C132.224 130.968 131.993 129.869 130.604 129.869C130.207 129.869 128.488 131.168 126.702 132.799C122.834 136.395 121.379 137.96 120.222 139.925C119.329 141.49 118.039 145.951 118.039 147.549C118.039 148.182 117.676 148.781 116.816 149.514C112.518 153.309 103.094 154.375 97.3406 151.711C94.2987 150.313 91.4881 146.717 90.2647 142.688C90.0333 141.956 89.7357 138.06 89.6034 134.031C89.1736 123.011 88.0493 116.618 85.6356 111.723L84.313 109.06L85.9332 107.562C90.8268 103.067 98.002 100.869 106.301 101.369C108.318 101.468 110.864 101.668 111.955 101.768C113.311 101.901 114.072 101.835 114.204 101.602C114.336 101.402 114.799 99.7704 115.229 97.9724C117.709 87.6841 122.04 80.7587 128.951 76.0308C132.092 73.8998 136.49 72.1352 139.664 71.7356C142.276 71.4027 142.706 71.0031 142.971 68.5393C143.5 63.7447 145.483 59.6161 148.36 57.4186C150.741 55.5874 153.088 54.8882 157.486 54.6551C162.677 54.3887 162.843 54.189 160.726 49.8273C155.469 38.9397 142.144 32.9798 123.165 32.9798C117.114 32.9798 105.772 34.2117 105.045 34.9442C104.913 35.0774 104.516 36.4092 104.152 37.8742C102.069 46.7308 95.4559 56.786 81.9984 71.6691C79.5516 74.366 78.4274 75.9642 76.8733 78.8942C75.7822 80.9585 74.3604 83.2559 73.7322 84.0217L72.5418 85.3535L69.9958 84.9872C68.574 84.7542 66.3917 84.5877 65.1683 84.5877H62.8868L62.3247 82.9895C61.994 82.0905 61.6965 79.9596 61.5973 77.9286C61.3989 73.5336 61.9279 71.2695 64.1433 67.041C65.036 65.3429 65.6973 63.7447 65.5981 63.4784C65.4989 63.2453 64.1433 62.0467 62.5561 60.848C55.5133 55.5541 50.8842 48.7285 48.5365 40.0717C47.9414 37.9075 47.8091 36.4425 47.776 31.3816C47.7099 26.6869 47.5776 25.1554 47.247 24.8224C46.9825 24.5893 45.4284 24.1565 43.7752 23.8568C33.3927 21.9923 25.8869 17.8637 23.3078 12.5697C22.0844 10.0059 21.853 6.87616 22.6465 3.7464C23.6385 -0.115875 22.9441 -0.6819 18.8441 0.649918ZM18.9102 6.27684C18.4803 13.735 22.8449 19.8614 31.2765 23.657C33.8887 24.8557 38.8815 26.3873 42.0227 26.9866L44.205 27.3862L44.4034 32.5802C44.5357 36.7089 44.734 38.5068 45.3953 41.0706C46.5196 45.2991 48.4043 49.5609 50.785 53.1901C52.6366 56.0535 57.1996 60.9812 60.1424 63.3119L61.5973 64.4772L60.5722 66.6414C58.3238 71.2362 57.5964 77.4292 58.6875 82.2237C58.9851 83.4223 59.0843 84.4878 58.952 84.621C58.423 85.1537 55.7117 85.0205 54.5544 84.4212C53.9262 84.0882 52.2398 83.3224 50.818 82.7564L48.2389 81.691L46.0897 75.265C43.0147 66.1753 42.155 64.5771 40.7662 65.4761C39.4767 66.3085 39.5428 66.6747 41.9566 73.4337C43.2792 77.0296 44.2711 80.0595 44.205 80.1594C43.9405 80.4258 42.3203 79.8597 42.3203 79.4935C42.3203 78.8276 38.5839 69.7379 36.9968 66.5083C29.2926 51.0925 18.8441 39.4724 6.41157 32.5802C3.89862 31.1818 3.79942 31.0819 3.5349 29.6502C3.17119 27.6192 3.50184 21.5927 4.09701 19.3287C5.45268 14.3676 8.89145 9.67299 13.1569 6.97606C15.0416 5.77742 18.2819 4.07935 18.8441 4.04605C18.9432 4.01276 18.9763 5.04492 18.9102 6.27684ZM135.233 37.2749C145.682 39.1061 152.659 42.9684 156.527 49.0948C157.189 50.0936 157.718 51.0259 157.718 51.1258C157.718 51.2257 157.023 51.2923 156.197 51.2923C154.246 51.2923 151.138 52.0913 148.79 53.2234C146.277 54.422 143.07 57.685 141.846 60.3486C140.821 62.5461 139.862 65.8757 139.862 67.1742C139.862 68.0399 139.598 68.173 135.729 69.2718C125.545 72.0686 117.279 80.5589 113.41 92.179C112.881 93.8105 112.286 95.8748 112.088 96.7738L111.724 98.4386L109.839 98.2055C102.763 97.3065 94.6293 98.5052 89.2728 101.235C85.7348 103 80.3452 107.795 80.3452 109.16C80.3452 109.393 80.775 110.159 81.3371 110.824C84.2469 114.52 85.834 121.945 86.2638 134.364C86.5284 141.49 86.6275 142.189 87.4542 144.519C89.1736 149.314 91.9841 152.677 95.8527 154.641C100.779 157.172 109.509 157.105 115.03 154.508C116.75 153.676 117.047 153.609 116.585 154.142C115.758 155.041 111.955 157.005 109.608 157.704C108.12 158.171 106.533 158.304 103.325 158.304C94.497 158.304 89.5704 155.84 84.313 148.781C81.8 145.452 78.6919 139.092 77.4354 134.797C76.6088 131.834 76.5427 131.301 76.8072 129.204C77.0387 127.439 77.0387 126.773 76.708 126.373C76.179 125.741 74.9225 125.708 74.3273 126.34C74.0628 126.606 73.4676 129.303 72.9386 132.899C72.4426 136.262 71.9466 139.259 71.8805 139.592C71.7482 140.025 71.1531 140.158 68.4748 140.258C65.3997 140.358 65.1352 140.424 63.9449 141.39C63.2505 141.922 62.4239 142.955 62.0602 143.62C61.7295 144.286 61.2997 144.753 61.1343 144.653C60.6384 144.353 60.8037 140.757 61.3327 139.958C61.8948 139.159 63.1844 138.659 65.7304 138.36C68.045 138.06 68.5409 137.494 68.3756 135.463C68.1441 133.266 66.8546 131.434 64.6062 130.136C62.3578 128.871 61.9279 128.038 61.6303 124.276L61.3989 121.579L62.5231 120.447C63.515 119.448 64.0771 119.248 67.3175 118.616C71.7483 117.717 71.9466 117.75 75.2201 120.713C76.5427 121.912 77.8984 122.877 78.2621 122.877C79.1548 122.877 79.6839 122.245 79.6839 121.146C79.6839 120.414 79.1218 119.748 76.8733 117.75C73.137 114.487 72.1781 114.221 67.3175 115.219L63.8457 115.919L60.7706 113.854C59.0843 112.722 57.1335 111.324 56.4391 110.791C53.86 108.76 50.9503 103.666 49.4624 98.605L48.9333 96.8404L50.3882 98.039C51.2148 98.7049 52.0745 99.2377 52.339 99.2377C53.0995 99.2377 53.8931 98.3054 53.8931 97.4064C53.8931 95.5086 45.7921 90.3811 40.8324 89.1159C37.2944 88.2169 33.0621 87.8839 29.5572 88.2502C25.2587 88.7163 24.1675 89.4488 25.1264 91.2801C25.3909 91.7462 25.8208 91.9127 26.7797 91.9127C27.5071 91.9127 28.1023 92.0458 28.1023 92.179C28.1023 92.6452 24.9942 95.4753 23.4732 96.3743C22.4812 96.9403 21.6546 97.806 20.9933 98.938C20.0344 100.536 19.9683 100.603 18.8441 100.403C16.4303 99.9702 16.5295 100.137 16.5295 96.8071C16.5626 86.6187 18.4142 78.6278 21.9191 73.8665C22.6796 72.8011 23.407 71.9354 23.5724 71.9354C23.7046 71.9354 23.8038 72.8344 23.8038 73.9331C23.8038 75.7311 23.7046 76.0308 22.6465 77.2294C21.1586 78.8609 19.8691 81.7576 19.4062 84.3546C18.9763 86.9849 19.2408 88.1836 20.365 88.4499C21.6546 88.7829 22.349 87.8839 22.6135 85.5532C22.9441 82.1238 24.5974 79.2604 26.8789 78.0285C27.4079 77.7621 27.9039 77.6289 28.0362 77.7288C28.1354 77.862 27.7386 79.1605 27.1434 80.6921C25.8208 84.0549 25.5893 85.1204 26.1184 85.753C26.6805 86.4189 27.9039 86.3856 28.4991 85.6531C28.7636 85.3535 29.3588 84.2214 29.7886 83.1227L30.5822 81.1582L33.3927 81.358C38.0218 81.691 45.5276 83.9218 51.5785 86.8185L55.381 88.6164L57.5964 88.2502C60.5392 87.8173 66.6232 87.8173 69.9627 88.3168C72.112 88.6164 72.8394 88.6164 73.6991 88.2502C75.3523 87.5843 77.4024 84.9872 79.5185 80.9252C81.1718 77.7954 82.1638 76.4303 85.4372 72.8011C94.8938 62.313 100.019 55.3876 103.722 48.0959C105.409 44.7663 107.459 39.4391 107.459 38.307C107.459 37.5412 108.12 37.4414 117.213 36.5091C120.619 36.1761 131.563 36.609 135.233 37.2749ZM59.7125 118.582C58.4561 120.081 58.0924 121.679 58.3238 124.509C58.423 125.907 58.6545 127.572 58.8529 128.171C59.3819 130.003 60.7376 131.801 62.1594 132.533C63.6142 133.266 64.8046 134.331 64.8046 134.864C64.8046 135.53 63.9118 135.163 63.1844 134.165C62.2916 132.966 60.6053 131.867 59.6133 131.867C59.2166 131.867 58.5553 131.701 58.1254 131.501C57.0343 131.001 54.5544 127.605 54.5544 126.64C54.5544 126.174 55.3149 123.577 56.2407 120.88L57.927 115.919L59.2166 116.784L60.5061 117.617L59.7125 118.582ZM128.323 140.391C127.529 144.586 125.181 147.882 120.519 151.245L118.205 152.943L119.792 151.245C121.015 149.88 121.346 149.314 121.346 148.382C121.346 144.619 122.867 141.29 126.107 137.927L128.455 135.463L128.554 136.995C128.62 137.827 128.488 139.359 128.323 140.391ZM80.2129 148.715C81.2379 150.313 83.0565 152.644 84.2469 153.909C85.4041 155.141 86.2638 156.173 86.1316 156.173C85.5033 156.173 81.3371 153.642 79.4524 152.111C77.204 150.346 75.3854 148.249 73.7652 145.718C72.5749 143.787 72.5087 143.521 73.3684 143.521C74.1951 143.521 74.691 142.888 74.9225 141.49C75.0217 140.857 75.187 140.158 75.2532 139.891C75.3523 139.625 76.0467 140.857 76.8403 142.622C77.6338 144.386 79.1548 147.15 80.2129 148.715ZM70.095 146.051C70.095 146.85 69.6982 147.516 69.2022 147.516C68.8385 147.516 68.7393 147.316 68.9046 146.75C69.0038 146.351 69.103 145.651 69.103 145.185C69.1361 144.386 69.1361 144.386 69.599 144.986C69.8635 145.352 70.095 145.818 70.095 146.051Z" fill="#3E3E3E"/>
<path d="M12.7648 15.7587C12.1035 16.5578 11.1777 18.0894 10.6817 19.1881C9.82199 20.9861 9.75586 21.4522 9.75586 25.148C9.78892 30.0424 10.2849 31.6406 11.839 31.6406C13.4261 31.6406 13.6906 31.008 13.2277 28.3777C12.4341 23.9161 13.1285 20.6864 15.5753 17.4235C16.6003 16.0584 16.6003 15.9918 16.0713 15.1594C15.2447 13.8609 14.1535 14.0606 12.7648 15.7587Z" fill="#3E3E3E"/>
<path d="M20.3303 28.0821C19.4045 28.3152 18.4787 28.6148 18.2803 28.748C17.619 29.1476 17.5528 30.3129 18.1811 31.0454C18.7432 31.7446 18.8093 31.7446 21.0908 31.3118C25.8191 30.4128 31.6716 31.3451 37.3588 33.8755C39.3428 34.7412 40.5 34.6746 40.8307 33.6424C41.2275 32.3772 40.6984 31.7446 38.3177 30.6791C33.9201 28.6814 30.6466 27.9156 26.1167 27.7824C23.4384 27.7159 21.3884 27.8157 20.3303 28.0821Z" fill="#3E3E3E"/>
<path d="M110.329 40.1405C110.065 40.4068 109.602 41.6721 109.304 42.9706C107.453 51.2278 100.806 61.6826 89.1675 74.5679C86.7207 77.2649 84.9683 79.4957 84.9683 79.8952C84.9683 80.7276 85.828 81.5933 86.6215 81.5933C86.9852 81.5933 88.6385 80.0617 90.5232 77.9974C103.154 64.3129 110.495 52.8926 112.545 43.7031C113.107 41.1726 112.974 40.2403 111.883 39.8408C111.123 39.5411 110.858 39.5744 110.329 40.1405Z" fill="#3E3E3E"/>
<path d="M113.874 47.4609C113.378 48.1934 113.378 48.3599 113.841 49.0591C114.204 49.6251 114.965 49.958 116.817 50.3576C124.785 52.1222 131.431 58.0821 133.878 65.7068C134.341 67.0719 135.366 67.5713 136.523 66.9387C137.482 66.4393 137.416 65.2406 136.259 62.577C132.985 54.8192 126.141 49.159 117.676 47.1279C114.833 46.462 114.502 46.4953 113.874 47.4609Z" fill="#3E3E3E"/>
<path d="M107.391 64.6482C106.597 65.081 106.663 65.9467 107.622 69.0432C109.243 74.1707 109.243 82.0617 107.655 89.2868C106.597 93.8815 106.597 94.4476 107.49 94.947C108.713 95.5796 109.639 94.8804 110.201 92.8494C112.417 85.0583 112.847 75.7688 111.259 69.5426C110.036 64.9145 109.077 63.6493 107.391 64.6482Z" fill="#3E3E3E"/>
<path d="M18.254 92.1085C16.8984 93.0408 17.6258 95.2383 19.3121 95.2383C20.1718 95.2383 21.1638 94.2727 21.1638 93.4736C21.1638 92.8077 20.0395 91.5758 19.4113 91.5758C19.1799 91.5758 18.6508 91.8089 18.254 92.1085Z" fill="#3E3E3E"/>
</svg>
