<svg width="128" height="163" viewBox="0 0 128 163" fill="none" xmlns="http://www.w3.org/2000/svg">
<path fill-rule="evenodd" clip-rule="evenodd" d="M68.5249 159.763C66.8786 161.248 65.1581 162.035 63.3877 162.035C60.9516 162.035 58.6101 160.545 56.4264 157.798C55.2438 157.998 53.965 158.036 52.6451 157.883C47.9609 157.338 44.3328 154.564 43.865 151.403C41.4909 150.825 39.3163 149.883 37.4293 148.667C36.7852 149.022 36.1527 149.171 35.5361 149.099C34.559 148.985 33.6699 148.325 32.8728 147.174C29.3725 147.518 24.0309 145.312 19.1369 141.19C12.4946 135.594 9.19225 128.586 11.7608 125.537C12.0051 125.247 12.2937 125.003 12.6217 124.805C10.0578 123.51 7.34266 121.042 5.14149 117.758C0.924782 111.467 0.191132 104.568 3.50284 102.348C3.72919 102.196 3.96859 102.07 4.21953 101.969C3.80957 96.1879 5.94818 91.3378 9.39673 90.615C9.20988 88.2089 9.08999 85.8777 9.03501 83.6404C7.44334 81.6634 6.19914 78.8233 5.66581 75.5572C4.5733 68.8666 6.87742 62.922 10.8122 62.2795C11.0291 62.2441 11.2463 62.2255 11.4635 62.2232C12.3648 59.8553 13.5027 58.204 14.8595 57.4316C16.4648 55.1983 18.56 53.7101 21.0016 53.3008C20.6159 51.8527 20.2879 50.3284 20.0297 48.7474C18.2722 37.9839 20.4183 28.6753 24.8233 27.956C28.8557 27.2975 33.3833 34.0653 35.4685 43.4719C40.46 19.8347 46.9921 3.93514 52.3348 4.55608C53.7138 4.71634 54.9174 5.96594 55.9348 8.14713C58.2572 4.99013 60.7678 3.26611 63.3877 3.26611C66.237 3.26611 68.9572 5.30539 71.4465 9.00955C73.373 6.87598 75.4171 5.72861 77.5348 5.72861C83.9314 5.72861 89.6576 16.1973 93.4955 32.6932C95.9733 28.8921 98.8634 26.7591 101.712 27.0902C107.913 27.8109 111.627 39.94 110.184 54.4143C110.339 54.6743 110.49 54.9497 110.637 55.2399C111.162 55.0048 111.681 54.9119 112.191 54.9712C114.237 55.209 115.867 57.8652 117.001 62.2755C120.716 63.5795 123.034 69.2394 122.287 75.6721C121.868 79.278 120.567 82.4266 118.814 84.571C118.775 86.4189 118.701 88.3224 118.592 90.2724C122.133 91.5328 124.43 95.7912 123.88 100.523C123.683 102.222 123.142 103.778 122.357 105.093C122.459 105.135 122.56 105.18 122.66 105.228C126.594 107.105 127.677 113.042 125.078 118.488C122.802 123.259 118.456 126.071 114.768 125.434C115.329 127.06 115.545 128.925 115.319 130.869C114.743 135.826 111.487 139.626 107.728 140.052C105.705 143.73 103.62 145.728 101.67 145.501C101.656 145.5 101.642 145.498 101.628 145.496C101.619 145.495 101.61 145.494 101.602 145.492C101.585 145.49 101.568 145.487 101.552 145.485C99.0277 148.909 95.4092 150.894 91.6439 150.456C90.1755 150.285 88.8133 149.761 87.5986 148.953C84.6127 154.939 81.1827 158.344 77.5348 158.344C76.7683 158.344 76.0115 158.194 75.2664 157.901C74.2912 160.052 72.6078 161.416 70.8675 161.214C69.9487 161.107 69.1455 160.579 68.5249 159.763Z" fill="#FFFFFF"/>
<path d="M59.7366 1.98L56.7671 3.95998L55.3373 3.26332C52.1845 1.65001 49.5083 2.67667 45.4756 7.03993C39.9398 13.0532 35.064 21.4864 33.4142 27.9763L32.9376 29.7363L31.8012 27.9397C30.1148 25.2997 29.0883 24.4564 27.2186 24.273C25.4955 24.053 23.9924 24.6397 22.8193 25.923C22.4527 26.3263 20.8396 30.7629 19.2265 35.7862C16.5503 43.9994 16.2937 45.0994 16.4403 47.0794C16.5503 48.2894 16.7336 49.6094 16.8803 50.0494C17.0636 50.6727 16.9169 50.8927 15.9637 51.296C12.9942 52.5427 11.2345 54.486 10.6846 57.2359C10.5013 58.0059 10.1347 58.3359 9.07152 58.5926C7.71508 58.9592 5.80872 60.6459 5.03885 62.1492C4.81888 62.5525 4.37895 66.1458 4.04901 70.1424C3.57242 75.9723 3.53576 77.879 3.8657 79.8956C4.34229 82.7922 6.17533 86.8622 7.86172 88.7688L9.03486 90.0888L6.90854 90.7121C3.90236 91.5921 2.91253 92.1788 1.84937 93.7188C0.566241 95.6254 0.566241 98.522 1.84937 100.759L2.76588 102.335L1.51942 103.729C-0.130312 105.562 -0.313615 106.735 0.382938 109.999C2.69256 120.375 4.45227 124.005 8.30165 126.462C9.65809 127.342 10.0614 127.818 9.87806 128.258C9.76808 128.588 9.54811 129.542 9.47479 130.385C9.14484 132.915 10.6479 135.482 15.1939 140.065C21.0596 146.005 27.1452 149.598 34.4407 151.505L37.5202 152.275L37.3369 154.145L37.1536 155.978L40.3798 157.151C47.7486 159.828 58.4168 162.028 64.0259 162.028C69.2684 162.028 81.3298 159.571 87.6721 157.188L90.8982 155.978L90.7882 154.035C90.7149 152.495 90.8249 152.128 91.2648 152.128C92.2913 152.128 98.9635 149.855 101.2 148.755C107.176 145.785 113.628 140.358 116.964 135.482C118.284 133.538 118.43 133.135 118.394 131.082C118.394 129.872 118.284 128.588 118.21 128.258C118.1 127.855 118.687 127.232 119.897 126.425C123.563 123.932 125.543 119.935 127.412 111.062C128.365 106.662 128.219 105.379 126.532 103.765L125.249 102.519L126.349 100.502C127.559 98.2287 127.669 96.982 126.826 95.0021C125.909 92.8021 124.589 91.7021 121.84 90.8588C120.483 90.4555 119.347 90.0521 119.347 89.9055C119.347 89.7955 119.86 89.1355 120.483 88.4022C122.096 86.5689 123.746 82.9389 124.223 80.1156C124.663 77.549 124.039 66.1458 123.306 63.0658C122.793 61.0859 120.96 59.1426 119.017 58.6292C117.697 58.2992 117.551 58.1159 117.331 56.7593C117.037 54.9626 115.388 53.0193 113.335 51.956C110.952 50.7827 110.952 50.7827 111.538 48.6194C112.161 46.1994 111.978 45.3561 108.642 35.0162C105.636 25.703 104.939 24.603 102.08 24.273C99.7334 24.0164 98.3403 24.823 96.6539 27.463L95.2242 29.663L94.3076 26.6197C92.1813 19.9464 87.782 12.5765 82.5029 7.00328C78.3602 2.60333 75.794 1.65001 72.6045 3.26332L71.2114 3.99666L68.2419 1.98C64.3559 -0.659958 63.6593 -0.659958 59.7366 1.98ZM65.749 5.16997C68.9751 7.33327 68.9018 7.14993 67.362 9.09325C66.6288 10.0099 65.5657 11.3299 65.0157 11.9899L63.9892 13.1632L61.7896 10.3766C60.5431 8.83658 59.59 7.44327 59.6633 7.25993C59.7733 6.9666 63.6226 4.03333 63.9159 3.99666C63.9892 3.99666 64.7958 4.50998 65.749 5.16997ZM53.7976 7.00328C54.7141 7.69994 61.0564 15.8398 61.0564 16.3165C61.0564 17.3431 47.5653 29.883 40.8197 35.1262L38.3634 37.0329L37.7768 35.9329C36.7137 33.8429 36.677 30.9096 37.7402 27.6463C39.7565 21.3031 43.7159 14.8132 48.5918 9.7899C51.7446 6.52661 52.5878 6.08662 53.7976 7.00328ZM78.8735 9.0199C83.6027 13.7498 87.8187 20.4598 90.2016 27.0963C91.0082 29.3696 91.1548 30.2863 91.0448 32.4129C90.9349 33.8062 90.6416 35.4562 90.3483 36.0062L89.7984 37.0329L87.0488 34.9429C81.2564 30.5063 71.688 21.7797 68.5718 18.1131L66.8854 16.1331L69.8549 12.3565C71.5047 10.2666 73.2277 8.13992 73.7043 7.55327C75.0974 5.93996 76.0873 6.23328 78.8735 9.0199ZM68.7918 24.163C73.8143 29.1863 79.57 34.3196 84.2626 37.9129C85.839 39.1228 87.0855 40.2595 87.0855 40.4795C87.0855 41.0295 79.3867 49.206 75.0241 53.276C70.8081 57.1993 64.6125 62.2959 64.0259 62.2959C62.6328 62.2959 46.2455 47.0794 42.1761 42.0195L40.783 40.2595L41.5896 39.6728C44.999 37.3262 53.3576 29.993 58.0869 25.2263C61.2397 22.1097 63.8793 19.5064 63.9159 19.4698C63.9892 19.4331 66.1889 21.5231 68.7918 24.163ZM28.9416 30.9463C29.8948 32.4496 31.5812 34.9429 32.681 36.4829C33.7808 37.9862 34.6607 39.3428 34.6607 39.4895C34.6607 39.7828 27.2186 44.7694 23.4059 47.0427C22.1227 47.8127 20.9496 48.326 20.7296 48.1794C19.9231 47.6661 20.473 44.9894 23.1492 36.7762C25.3489 29.883 26.0454 28.1963 26.5587 28.1963C26.9619 28.1963 27.8418 29.223 28.9416 30.9463ZM104.939 36.6295C106.406 41.1761 107.615 45.2828 107.652 45.7961C107.762 47.4461 107.615 48.3627 107.212 48.3627C106.772 48.3627 97.6438 42.7161 95.0775 40.8461L93.3545 39.5995L96.8739 34.3562C98.7803 31.4596 100.54 28.893 100.76 28.6363C101.75 27.3897 102.3 28.453 104.939 36.6295ZM41.1863 47.0427C46.0255 52.506 53.5043 59.4726 59.5166 64.1658L60.7264 65.0825L55.6673 68.4191C48.8484 72.8924 44.5591 75.349 37.5202 78.869C33.0476 81.1056 31.4712 81.7289 31.0313 81.4723C30.7013 81.2523 29.0516 79.4556 27.3652 77.4756C22.6726 71.9024 18.64 66.0358 15.7804 60.5725C14.4606 58.0792 14.424 57.8592 14.9739 57.0526C15.2672 56.5759 17.9067 54.8526 20.8029 53.2026C23.6991 51.5893 28.5384 48.6194 31.5445 46.6027C34.5874 44.5861 37.1536 42.8995 37.2636 42.8995C37.3736 42.8628 39.17 44.7328 41.1863 47.0427ZM93.1712 44.4028C96.5073 46.7494 103.29 50.9293 108.422 53.826C111.831 55.7693 113.188 56.7226 113.335 57.3092C113.884 59.5092 105.489 72.4524 99.1102 79.3456L96.7272 81.9123L91.998 79.6023C85.4358 76.3757 78.4336 72.379 72.6045 68.5291C69.8916 66.6958 67.6553 65.1558 67.6553 65.0825C67.6553 64.9725 69.3417 63.5425 71.4314 61.8559C75.8307 58.2626 84.3726 50.0494 88.002 45.8327C89.3951 44.1828 90.6782 42.8628 90.7882 42.8628C90.8982 42.8628 91.9614 43.5594 93.1712 44.4028ZM11.7844 62.8458C12.2243 63.1392 13.6908 65.1925 15.0839 67.4291C18.1634 72.4157 22.416 78.209 25.2755 81.2523L27.4019 83.5622L25.6422 84.2956C23.9924 85.0289 15.8904 87.9988 14.2407 88.4755C13.6174 88.6955 13.1042 88.4022 12.0044 87.3022C9.98804 85.2855 8.74158 83.0489 8.04502 80.1889C7.49511 77.989 7.49511 77.219 8.04502 70.6924C8.59493 64.3492 8.74158 63.5058 9.40147 62.9192C10.3546 62.1492 10.7946 62.1492 11.7844 62.8458ZM118.614 62.9558C119.384 63.5792 119.494 64.2025 119.97 69.4824C120.667 77.2556 120.483 79.8956 119.09 82.9022C117.99 85.2855 116.121 87.7055 114.911 88.3288C114.434 88.5855 113.225 88.3288 110.292 87.2655C106.406 85.8722 101.31 83.8922 101.053 83.7089C101.017 83.6356 102.3 81.9856 103.913 80.0056C107.689 75.4957 111.062 70.7291 113.555 66.5858C116.084 62.2959 117.001 61.6359 118.614 62.9558ZM68.8285 70.8757C75.1341 75.1657 80.0466 78.0623 87.3421 81.8023L93.6111 85.0289L90.4583 87.9988C84.2626 93.8288 76.2706 99.8053 68.4618 104.572L64.2092 107.139L61.9729 105.929C57.9769 103.729 49.5816 97.972 44.7424 94.0854C39.4999 89.8688 34.3674 85.2122 34.6607 84.9189C34.7707 84.8455 37.4836 83.4156 40.7097 81.8023C47.3086 78.4656 54.2375 74.3957 59.9566 70.4724C62.0829 69.0058 63.9159 67.7958 64.0626 67.7958C64.2092 67.7958 66.3355 69.1891 68.8285 70.8757ZM33.8908 90.0888C41.113 96.7254 48.2618 102.262 55.484 106.735C57.7203 108.165 59.59 109.375 59.59 109.485C59.59 109.742 49.3983 114.545 45.6589 116.012C41.0396 117.845 34.624 120.008 29.9315 121.328L26.1187 122.428L23.6991 120.265C15.6704 113.115 4.96553 99.952 4.96553 97.2387C4.96553 95.6987 5.77206 95.1854 9.91472 94.0121C14.4973 92.7288 21.6828 90.2721 26.2287 88.3655C28.1351 87.5588 29.8581 86.8989 30.0414 86.8989C30.1881 86.8622 31.9478 88.3288 33.8908 90.0888ZM102.703 88.7322C106.992 90.4188 112.491 92.2888 120.08 94.6354C124.589 96.0287 124.443 96.9454 118.504 104.902C114.251 110.549 108.605 116.672 103.766 120.778L101.896 122.392L96.9472 120.962C91.5214 119.422 85.6557 117.368 80.7798 115.352C75.3174 113.078 68.2785 109.559 68.6085 109.265C68.7918 109.119 70.5148 108.019 72.4212 106.845C80.2666 101.932 87.8187 96.1754 94.051 90.1988C95.9574 88.4022 97.6438 86.8988 97.7538 86.8622C97.9004 86.8622 100.137 87.7055 102.703 88.7322ZM8.63159 110.219C10.3546 112.382 13.8374 116.268 16.4403 118.835C20.0331 122.428 20.9496 123.528 20.473 123.675C18.53 124.225 15.0472 124.628 13.8374 124.408C11.0879 123.895 8.66826 122.135 7.42179 119.678C6.28531 117.405 3.6824 107.249 4.08567 106.589C4.63558 105.709 5.80872 106.625 8.63159 110.219ZM123.966 106.772C124.186 107.395 122.976 112.968 121.73 116.892C119.714 123.198 115.681 125.472 109.082 123.968L107.029 123.492L112.198 118.248C115.021 115.388 118.504 111.502 119.897 109.669C122.353 106.515 123.526 105.672 123.966 106.772ZM69.7816 114.692C77.0038 118.285 83.2728 120.852 91.4481 123.528L97.8271 125.618L95.6641 127.268C88.2586 132.915 77.847 138.855 67.9119 143.108L64.0259 144.758L59.5166 142.815C49.7282 138.598 41.2963 133.758 32.7177 127.452L30.2247 125.618L37.6669 123.162C47.3453 119.935 54.6408 116.818 63.9159 111.832C63.9526 111.832 66.5922 113.078 69.7816 114.692ZM28.355 129.285C36.567 135.592 49.8382 143.365 57.3903 146.335C58.6734 146.848 57.9769 147.141 53.4676 148.058C39.1333 150.991 23.9924 145.601 15.4871 134.492C12.041 129.945 12.4443 129.322 19.4832 127.928C22.2694 127.378 24.689 126.902 24.8723 126.865C25.0189 126.865 26.5953 127.928 28.355 129.285ZM108.239 127.892C111.135 128.478 113.738 129.138 114.031 129.395C115.021 130.238 114.654 131.778 112.931 134.088C108.202 140.395 100.137 145.675 92.218 147.765C86.3889 149.268 78.0303 149.158 71.908 147.471L69.745 146.885L75.2074 144.245C81.5131 141.238 85.2525 139.148 91.0082 135.408C95.2242 132.695 101.933 127.782 102.3 127.158C102.593 126.718 102.3 126.682 108.239 127.892ZM70.1849 151.175C73.521 152.238 77.5537 153.448 79.1301 153.815C80.6699 154.181 81.953 154.585 81.953 154.695C81.953 155.135 75.3174 156.565 69.7083 157.371C63.586 158.215 61.1297 158.068 52.4045 156.345C45.1456 154.878 45.109 154.841 50.0582 153.521C52.3678 152.935 56.3272 151.725 58.8567 150.845C61.3863 150.001 63.586 149.268 63.7693 149.231C63.9526 149.195 66.8121 150.075 70.1849 151.175Z" fill="#141414"/>
</svg>
