<svg width="116" height="168" viewBox="0 0 116 168" fill="none" xmlns="http://www.w3.org/2000/svg">
<path d="M53.817 0L4.00195 24.9075L34.9091 44.3608L53.817 34.3615V0Z" fill="#D9AE6A"/>
<path d="M53.9674 167.276L4.15234 142.368L35.0595 122.915L53.9674 132.914V167.276Z" fill="#D9AE6A"/>
<path d="M62.36 167.276L112.175 142.368L81.2679 122.915L62.36 132.914V167.276Z" fill="#D9AE6A"/>
<path d="M62.36 0L112.175 24.9075L81.2679 44.3608L62.36 34.3615V0Z" fill="#D9AE6A"/>
<path d="M30.7253 50.7369L0 31.6472V135.641L30.7253 116.369V50.7369Z" fill="#D9AE6A"/>
<path d="M85.2747 50.7369L116 31.6472V135.641L85.2747 116.369V50.7369Z" fill="#D9AE6A"/>
<path d="M57.8067 41.6384L38.5352 51.2742V116.179L57.8067 125.815L77.26 116.179V51.2742L57.8067 41.6384Z" fill="#D9AE6A"/>
</svg>
