<?xml version="1.0" standalone="no"?>
<!DOCTYPE svg PUBLIC "-//W3C//DTD SVG 20010904//EN"
 "http://www.w3.org/TR/2001/REC-SVG-20010904/DTD/svg10.dtd">
<svg version="1.0" xmlns="http://www.w3.org/2000/svg"
 width="36.000000pt" height="36.000000pt" viewBox="0 0 36.000000 36.000000"
 preserveAspectRatio="xMidYMid meet">

<g transform="translate(0.000000,36.000000) scale(0.100000,-0.100000)"
fill="#D9AE6A" stroke="none">
<path d="M82 308 c-7 -7 -12 -39 -12 -75 0 -46 -4 -64 -16 -71 -9 -5 -14 -17
-12 -28 4 -20 114 -103 138 -104 9 0 44 20 78 45 62 45 78 77 47 89 -11 4 -15
22 -15 69 0 36 -5 68 -12 75 -16 16 -180 16 -196 0z m186 -82 c2 -48 8 -73 18
-81 13 -9 6 -18 -45 -54 l-61 -42 -61 42 c-52 37 -58 45 -45 55 12 8 16 28 16
76 0 36 3 68 7 72 4 4 43 5 88 4 l80 -3 3 -69z"/>
<path d="M130 235 c0 -9 5 -15 11 -13 6 2 11 8 11 13 0 5 -5 11 -11 13 -6 2
-11 -4 -11 -13z"/>
<path d="M170 205 c-24 -24 -41 -48 -37 -52 8 -7 97 75 97 89 0 17 -18 6 -60
-37z"/>
<path d="M206 173 c-11 -11 -6 -23 9 -23 8 0 15 4 15 9 0 13 -16 22 -24 14z"/>
</g>
</svg>
