<svg width="111" height="127" viewBox="0 0 111 127" fill="none" xmlns="http://www.w3.org/2000/svg">
<path d="M3.06353 0.614065C-0.00639583 0.578687 -0.169086 0.182567 5.53622 6.86004C8.36159 10.1968 11.0758 13.5527 11.5649 14.357C16.0384 21.7388 16.9448 30.6121 14.0597 38.8205C13.1836 41.3892 10.7028 45.6222 8.90407 47.6836L7.4944 49.3075L9.05058 51.2609C10.8574 53.5345 13.1411 57.5169 14.3072 60.2918C16.889 66.5459 17.8864 72.71 17.3851 79.4764C16.9122 85.8608 15.5793 90.1514 11.7525 97.7413C10.4337 100.36 9.39493 102.532 9.44546 102.591C9.49598 102.649 11.8545 101.919 14.693 101.004C22.6781 98.386 25.7885 97.8758 32.0526 98.1203C43.0237 98.5216 53.0581 103.051 60.46 110.896L61.8596 112.372L63.6461 111.215C65.9774 109.741 70.5298 107.911 73.1995 107.423C81.7414 105.806 90.4388 108.014 97.0283 113.496C97.7519 114.098 100.671 117.277 103.555 120.563C108.738 126.516 108.789 126.575 109.065 125.8C109.207 125.371 109.593 121.641 109.898 117.521C110.327 111.737 110.374 109.244 110.205 106.708C109.639 99.1767 108.395 92.6376 106.337 86.3401C105.038 82.4032 102.952 77.2284 102.652 77.2061C102.543 77.198 101.814 77.775 100.994 78.4824C95.1621 83.5096 86.0119 85.9318 78.2734 84.4807C71.9143 83.2963 66.3201 80.3032 62.4681 76.0125C60.0327 73.3357 59.9953 73.4701 66.5617 67.784L71.8658 63.2114L70.5805 62.787C64.4497 60.7417 59.183 54.81 57.9269 48.4347L57.5632 46.6794L52.2883 51.2267C45.6967 56.8835 45.8372 56.839 43.5463 54.0632C40.624 50.5547 38.6596 45.9649 37.7653 40.6314C37.2509 37.5756 37.6188 31.8693 38.4939 28.9439C40.1279 23.5508 43.1484 18.6993 46.8074 15.5961C47.5987 14.914 48.2787 14.2511 48.2888 14.1147C48.3171 13.7327 40.4675 9.33797 36.8287 7.72416C30.7212 4.99475 23.5536 2.87265 16.6994 1.70649C13.9619 1.2568 6.32647 0.636315 3.06353 0.614065Z" fill="#141414"/>
</svg>
