<svg width="111" height="127" viewBox="0 0 111 127" fill="none" xmlns="http://www.w3.org/2000/svg">
<path d="M3.06345 0.610613C-0.00645737 0.575229 -0.169146 0.179109 5.53612 6.85653C8.36147 10.1932 11.0757 13.5491 11.5647 14.3535C16.0382 21.7352 16.9446 30.6084 14.0596 38.8167C13.1834 41.3854 10.7026 45.6184 8.90394 47.6798L7.49428 49.3037L9.05044 51.257C10.8572 53.5306 13.1409 57.513 14.307 60.2879C16.8888 66.5419 17.8862 72.7059 17.3849 79.4723C16.912 85.8566 15.5791 90.1472 11.7523 97.7371C10.4336 100.355 9.39479 102.528 9.44532 102.586C9.49584 102.645 11.8544 101.914 14.6929 101C22.6779 98.3818 25.7882 97.8715 32.0523 98.1161C43.0233 98.5173 53.0576 103.046 60.4595 110.892L61.859 112.367L63.6456 111.21C65.9768 109.737 70.5291 107.907 73.1989 107.419C81.7407 105.802 90.438 108.01 97.0275 113.491C97.751 114.093 100.67 117.272 103.554 120.559C108.737 126.512 108.788 126.57 109.065 125.795C109.206 125.367 109.592 121.637 109.897 117.517C110.326 111.733 110.373 109.24 110.204 106.704C109.638 99.1724 108.394 92.6334 106.336 86.336C105.037 82.3991 102.951 77.2243 102.651 77.2021C102.542 77.194 101.813 77.771 100.993 78.4783C95.1612 83.5055 86.0111 85.9277 78.2727 84.4765C71.9136 83.2922 66.3195 80.2991 62.4675 76.0085C60.0322 73.3316 59.9948 73.466 66.5611 67.78L71.8652 63.2075L70.5799 62.7831C64.4492 60.7378 59.1824 54.8061 57.9264 48.4308L57.5626 46.6756L52.2878 51.2228C45.6963 56.8796 45.8367 56.8351 43.5459 54.0593C40.6236 50.5508 38.6592 45.9611 37.7649 40.6277C37.2506 37.5719 37.6184 31.8656 38.4935 28.9402C40.1275 23.5472 43.148 18.6957 46.807 15.5925C47.5982 14.9104 48.2783 14.2475 48.2884 14.1111C48.3167 13.7292 40.4671 9.33445 36.8283 7.72065C30.7209 4.99126 23.5534 2.86917 16.6992 1.70303C13.9617 1.25334 6.32636 0.632861 3.06345 0.610613Z" fill="#212121"/>
</svg>
