<svg width="55" height="52" viewBox="0 0 55 52" fill="none" xmlns="http://www.w3.org/2000/svg">
<g clip-path="url(#clip0_1962_3749)">
<path d="M20.0943 38.9076C18.2983 37.4753 17.062 35.6557 16.4388 33.4899C15.654 30.7932 15.8874 28.2981 17.1605 25.7527L17.633 24.7995L17.0379 24.9579C15.8085 25.2857 14.4896 25.266 13.0467 24.9016C12.2385 24.6978 10.4684 23.6868 9.85641 23.0773C7.81184 21.0539 7.08857 18.326 7.81387 15.4272C7.93837 14.915 8.27005 14.2889 10.5437 10.2643C13.0762 5.78136 13.1374 5.67304 13.5242 5.39692C14.0979 4.98457 14.7108 4.81418 15.4422 4.84264C16.5275 4.90616 17.5553 5.59673 17.9362 6.53739C18.2211 7.25891 18.3682 7.48492 18.6432 7.64026C19.2015 7.95565 19.4489 7.80961 22.3039 5.42145C23.745 4.21307 25.0325 3.15975 25.1568 3.07604C25.5508 2.82601 26.3702 2.64036 26.9461 2.69095C28.1966 2.79283 29.352 3.84127 29.5515 5.06415C29.5871 5.29308 29.6319 6.43957 29.6543 7.60634L29.6884 9.72509L29.9372 9.38199C30.0752 9.19613 30.4112 8.73746 30.7049 8.35378C31.3807 7.44948 32.8286 5.93717 33.7366 5.18604C34.5547 4.51608 36.0773 3.47467 36.6931 3.163C37.445 2.78538 38.0457 3.02578 38.1846 3.75277C38.2857 4.29357 38.0982 4.52835 37.0637 5.15308C34.7819 6.54603 32.7429 8.55981 31.3354 10.7984C30.995 11.3426 30.5811 11.9002 30.4061 12.0541C29.5681 12.7788 28.2368 12.4114 27.9004 11.353C27.8377 11.1527 27.7696 9.87221 27.7534 8.50005C27.7049 5.14208 27.7099 5.2109 27.4081 4.9085C27.098 4.60138 26.593 4.50296 26.2402 4.69937C26.1087 4.757 24.8259 5.80198 23.3895 7.00204C21.9531 8.2021 20.5743 9.28079 20.328 9.40546C18.7991 10.1466 16.9385 9.31527 16.3009 7.6031C16.0856 7.0308 15.7603 6.77006 15.2343 6.74771C14.6823 6.73262 14.6634 6.76595 12.1732 11.1739C9.58422 15.7568 9.48212 15.9959 9.4357 17.4206C9.40437 18.2933 9.84666 19.8841 10.3239 20.6154C11.1026 21.8248 12.2928 22.695 13.6371 23.0587C14.7152 23.349 15.5639 23.3448 16.6901 23.0247C18.4588 22.54 19.3997 21.7306 20.5248 19.7391C21.1979 18.5475 21.2026 18.5392 21.5819 18.4127C22.1009 18.2333 22.6353 18.5132 22.772 19.03L22.8746 19.3738L20.6274 23.4683C18.4943 27.3415 18.3661 27.5879 18.1833 28.32C17.3987 31.4601 18.3415 34.6748 20.6886 36.9021C21.4245 37.6036 23.2718 38.6142 24.2832 38.8668C27.3248 39.6507 30.4804 38.7734 32.7153 36.5296C33.2481 35.9952 33.3929 35.7582 35.6094 31.9321L37.9565 27.8941L38.3039 27.8045C38.8172 27.6548 39.3327 27.968 39.4469 28.5052C39.5343 28.8953 39.5296 28.9036 38.8565 30.0952C37.7314 32.0867 37.5238 33.3104 38.0215 35.0755C38.3286 36.2052 38.7631 36.9343 39.5681 37.7079C40.5736 38.6716 41.9332 39.2419 43.3709 39.2847C44.2436 39.316 45.8344 38.8737 46.5657 38.3965C47.762 37.6214 47.9141 37.4105 50.5031 32.8276C52.9933 28.4196 53.0121 28.3863 52.7143 27.9213C52.4237 27.4823 52.0324 27.3382 51.4311 27.4492C50.0032 27.7197 48.7349 27.1241 48.1032 25.8879C47.9546 25.6061 47.8267 25.1711 47.8005 24.9255C47.7744 24.6799 47.9972 22.9042 48.2952 20.9951C48.5897 19.073 48.7987 17.3994 48.7624 17.269C48.6645 16.9169 48.3367 16.6217 47.9422 16.5418C47.6368 16.4792 47.4176 16.5752 45.9794 17.3895C45.088 17.8972 44.1857 18.3657 43.9771 18.4237C42.7633 18.7823 41.3993 17.7918 41.2979 16.4925C41.2496 15.8387 41.4089 15.401 42.1309 14.2591C44.7766 10.0819 48.3675 6.70246 52.5527 4.45021L53.5176 3.9291L53.1394 3.78139C50.9795 2.93494 48.7244 2.52936 45.9928 2.48105C44.9564 2.46715 44.76 2.36721 44.6241 1.75179C44.4895 1.19216 44.7405 0.806316 45.3179 0.659845C45.8384 0.536207 48.5668 0.648632 49.6623 0.849799C51.7391 1.22064 53.6616 1.84509 55.4252 2.73148L56.4951 3.2699L56.6324 3.68825C56.7481 4.02838 56.7499 4.16132 56.5946 4.43629C56.4392 4.71127 56.2617 4.83085 55.596 5.11426C54.3334 5.67601 54.0965 5.78401 53.1482 6.31454C49.3611 8.40695 45.8568 11.7693 43.7754 15.298L43.1468 16.3718L43.3384 16.4801C43.5051 16.5742 43.768 16.459 44.9694 15.7527C47.2042 14.4431 48.0511 14.306 49.3035 15.0465C50.1404 15.5303 50.7666 16.6205 50.7378 17.5275C50.7302 17.6771 50.4926 19.3236 50.2014 21.1816C49.6295 24.8595 49.6321 25.1468 50.1904 25.4622C50.4653 25.6175 50.7348 25.6269 51.4999 25.4985C52.1048 25.4006 52.592 25.5109 53.28 25.8886C54.2883 26.4582 54.8478 27.5107 54.7539 28.6888C54.7087 29.1579 54.637 29.3042 52.313 33.4763C50.7386 36.3022 49.7769 37.9462 49.5161 38.2716C47.646 40.5896 44.8258 41.6125 41.9111 41.0321C41.0497 40.8642 40.8736 40.7867 39.844 40.216C38.6727 39.5653 38.3021 39.268 37.4984 38.2974C37.0255 37.7335 36.4084 36.5494 36.1825 35.7623L35.9991 35.1531L35.6602 35.753C34.315 38.1148 32.1108 39.8373 29.4484 40.6196C27.3693 41.2258 25.3643 41.2143 23.3182 40.575C22.5205 40.3332 20.7127 39.3888 20.0943 38.9076Z" fill="#FBFAF4" fill-opacity="0.32"/>
<path d="M21.3255 29.8631C20.9494 29.4198 20.6554 28.5392 20.6806 27.872C20.7019 27.3674 20.7522 27.2199 21.3156 26.1642C22.0978 24.6825 22.4367 24.3354 23.3825 24.0233C24.2453 23.7413 24.9365 23.802 25.6864 24.2256C26.4363 24.6493 26.845 25.21 27.0488 26.0945C27.2696 27.0656 27.1473 27.5351 26.2819 28.9698C25.6684 29.9972 25.5681 30.1164 25.1469 30.3951C24.5623 30.7683 23.6778 30.9721 23.0753 30.8516C22.5062 30.7499 21.7027 30.285 21.3255 29.8631ZM23.7545 28.949C24.0924 28.8761 24.1149 28.8558 24.6765 27.92C25.3312 26.8389 25.3775 26.6013 24.9953 26.1105C24.8101 25.874 24.7268 25.827 24.4287 25.7904C23.811 25.7163 23.6314 25.8786 23.0433 26.9974C22.5317 27.9614 22.5259 27.9911 22.6379 28.3182C22.7209 28.5409 22.8583 28.7065 23.0832 28.8336C23.3082 28.9607 23.5209 28.9929 23.7545 28.949Z" fill="#FBFAF4" fill-opacity="0.32"/>
<path d="M27.9896 33.6292C27.6135 33.1859 27.3195 32.3053 27.3447 31.6381C27.366 31.1335 27.4163 30.986 27.9797 29.9303C28.7618 28.4486 29.1008 28.1015 30.0465 27.7894C30.9093 27.5074 31.6005 27.5681 32.3504 27.9918C33.1004 28.4154 33.5091 28.9761 33.7129 29.8606C33.9337 30.8317 33.8114 31.3012 32.9459 32.7359C32.3325 33.7634 32.2322 33.8826 31.811 34.1612C31.2264 34.5344 30.3418 34.7382 29.7394 34.6177C29.1703 34.5161 28.3667 34.0511 27.9896 33.6292ZM30.4186 32.7151C30.7565 32.6422 30.779 32.6219 31.3406 31.6861C31.9953 30.605 32.0416 30.3674 31.6593 29.8766C31.4742 29.6401 31.3909 29.5931 31.0927 29.5565C30.4751 29.4824 30.2954 29.6447 29.7074 30.7635C29.1958 31.7275 29.19 31.7572 29.302 32.0843C29.385 32.3071 29.5223 32.4726 29.7473 32.5997C29.9723 32.7268 30.1849 32.759 30.4186 32.7151Z" fill="#FBFAF4" fill-opacity="0.32"/>
<path d="M28.8126 24.5428C27.6709 23.3922 27.2902 21.7702 27.818 20.2327C28.0649 19.5038 28.7377 18.488 29.2933 18.0104C29.9032 17.4756 30.8047 17.1056 31.6129 17.0565C34.48 16.8845 36.5598 19.5654 35.6747 22.319C35.4409 23.0442 34.6326 24.2804 34.1136 24.7126C32.5755 25.9761 30.1582 25.8966 28.8126 24.5428ZM31.1372 23.6577C31.7516 23.7959 32.5826 23.5509 33.0161 23.1143C33.1874 22.9473 33.4666 22.5114 33.6429 22.1604C34.0944 21.2833 34.0852 20.6186 33.6189 19.9264C32.6669 18.4983 30.7982 18.6737 29.8897 20.2819C29.4801 21.0068 29.3984 21.5212 29.5833 22.1863C29.8189 23.0339 30.2602 23.459 31.1372 23.6577Z" fill="#FBFAF4" fill-opacity="0.32"/>
<path d="M40.4432 2.731C40.1964 2.27282 40.3245 1.77362 40.7813 1.47105C41.3836 1.08585 42.2335 1.566 42.2145 2.28071C42.1943 2.76394 41.9889 3.01067 41.5065 3.14481C41.011 3.28257 40.6744 3.15839 40.4432 2.731Z" fill="#FBFAF4" fill-opacity="0.32"/>
</g>
<defs>
<clipPath id="clip0_1962_3749">
<rect width="49" height="49" fill="white" transform="matrix(0.87067 0.491868 0.491868 -0.87067 0 27.6641)"/>
</clipPath>
</defs>
</svg>
