<svg width="54" height="54" viewBox="0 0 54 54" fill="none" xmlns="http://www.w3.org/2000/svg">
<path d="M27.3944 1.67836C27.2491 1.81323 26.9068 2.47723 26.6163 3.16198C25.4543 5.94248 25.2156 7.03186 25.2053 9.66711L25.1949 11.5969L24.5413 11.7732C24.1781 11.877 23.8773 11.9392 23.8565 11.9185C23.8358 11.8977 23.4934 11.3479 23.0888 10.6942L22.3521 9.51148L22.7879 9.20023C23.815 8.47398 24.23 7.91373 24.479 6.9281C24.7591 5.82835 24.4583 4.64561 23.6698 3.80523C23.2236 3.33836 22.7153 3.2761 22.3625 3.65998C22.0409 4.00235 22.072 4.45885 22.4351 4.91536C23.2444 5.93211 23.068 7.00073 21.989 7.73735L21.4703 8.07973L21.1279 7.57135C19.8621 5.68311 17.1231 6.14998 16.6459 8.31836C16.179 10.4141 18.5134 11.96 20.3809 10.8084C20.6714 10.6216 20.9619 10.5075 21.0034 10.549C21.242 10.7876 22.321 12.6136 22.2588 12.6655C22.2173 12.6966 21.989 12.8419 21.7504 12.9664L21.3043 13.205L20.2979 12.6862C18.4615 11.7317 17.3721 11.462 15.3905 11.4724C13.8239 11.4724 12.6826 11.7214 11.2924 12.3439C10.3379 12.7692 8.6779 13.8794 8.20065 14.4085C7.56777 15.114 7.65077 15.2904 9.24852 16.5976C9.8814 17.1267 10.4105 17.5832 10.4105 17.6247C10.4105 17.6559 10.3171 18.2265 10.203 18.8801C10.0889 19.5337 9.99552 20.094 9.99552 20.1147C9.99552 20.1355 9.69465 19.7516 9.32115 19.264C8.94765 18.766 8.54302 18.2991 8.40815 18.2161C8.28365 18.1331 7.67152 17.9256 7.0594 17.7596C5.75215 17.3861 5.59652 17.4069 5.10889 18.0709C4.64202 18.7037 3.33477 21.4427 2.90939 22.6774C1.38427 27.0349 0.979645 32.5232 1.80964 37.3061C2.63964 42.1097 4.68352 46.405 7.46402 49.2062C8.50152 50.2437 9.14477 50.7625 10.2964 51.4472C13.4608 53.3562 17.4966 53.3666 20.6195 51.4784L21.2316 51.1152L22.1239 51.5925C25.4231 53.3562 29.0959 53.3147 32.2395 51.4784L32.8516 51.1152L33.7439 51.5925C39.6473 54.7465 46.0901 52.0282 49.877 44.7969C51.2465 42.1927 52.1388 39.2359 52.5953 35.8432C52.8339 34.0276 52.8443 30.3341 52.5953 28.4977C52.118 24.8146 50.6655 20.2807 49.8148 19.8139C49.462 19.6167 49.0159 19.762 48.8084 20.1459C48.6217 20.4779 48.6735 20.7061 49.3168 22.252C50.5203 25.1466 51.122 28.4147 51.122 32.1601C51.122 35.0962 50.8211 37.3165 50.0949 39.8584C49.5969 41.5495 48.6217 43.915 48.1444 44.5582C47.9991 44.745 47.968 44.7035 47.5634 43.9046C47.3351 43.4377 47.138 43.002 47.138 42.919C47.138 42.8464 47.4908 41.9126 47.9161 40.844C48.3415 39.7754 48.6943 38.8312 48.6943 38.7379C48.6943 38.4889 48.1236 37.9701 47.8435 37.9701C47.3455 37.9701 47.1691 38.2399 46.3495 40.3149L45.5299 42.3484L43.9218 43.1576L42.3033 43.9669L41.3488 45.409C40.3113 46.9756 40.2283 47.2557 40.6536 47.6707C40.9545 47.982 41.411 48.0131 41.7015 47.7434C41.8053 47.6396 42.2306 47.0482 42.6249 46.4361L43.3511 45.326L44.5858 44.7035C45.2602 44.3611 45.8204 44.0914 45.8411 44.1121C45.9449 44.2262 46.9305 46.2909 46.9305 46.3946C46.9305 46.6125 45.5403 48.1791 44.8348 48.7705C42.6871 50.5654 40.5603 51.3539 38.2674 51.2086C36.6489 51.1152 35.269 50.6484 33.7958 49.6939C33.4534 49.4656 33.0488 49.2789 32.8931 49.2789C32.7479 49.2789 32.2914 49.4864 31.8868 49.7457C30.2994 50.7729 28.9403 51.1879 27.1143 51.1879C25.2364 51.1879 23.8254 50.7625 22.1758 49.6939C21.8334 49.4656 21.4288 49.2789 21.2835 49.2789C21.1383 49.2789 20.6091 49.5279 20.1215 49.8391C18.0465 51.1464 15.6395 51.5614 13.4089 50.9907C12.5166 50.7625 10.8255 49.9221 9.98515 49.2892C6.61327 46.7266 4.14402 41.8919 3.29327 36.1856C3.06502 34.6605 2.99239 31.2367 3.13764 29.6079C3.37627 27.0452 3.97802 24.4411 4.81839 22.335C5.15039 21.505 6.1049 19.5234 6.26052 19.3574C6.30202 19.3159 6.6029 19.347 6.92452 19.4404C7.50552 19.6064 7.50552 19.6167 8.74015 21.256C9.4249 22.1586 10.0578 22.9264 10.1511 22.9679C10.6284 23.1442 11.1783 22.8641 11.2924 22.3765C11.3235 22.252 11.531 21.007 11.7593 19.6167C12.1535 17.2824 12.1639 17.0749 12.0186 16.8466C11.9356 16.7117 11.4376 16.2552 10.9293 15.8195L9.99552 15.0517L10.3379 14.8027C11.863 13.6511 14.187 12.9664 16.0545 13.1116C17.5278 13.2257 19.2293 13.8379 20.5261 14.7301C20.7751 14.9065 21.1071 15.0414 21.2524 15.0414C21.408 15.0414 21.8645 14.8339 22.2795 14.5849C23.2029 14.0039 24.0018 13.6511 25.0185 13.3606C26.0768 13.0597 27.965 13.039 29.0336 13.3191C29.8636 13.537 31.451 14.2529 32.1358 14.7197C32.3848 14.8961 32.7168 15.0414 32.8724 15.0414C33.0176 15.0414 33.5571 14.782 34.0759 14.4707C35.7566 13.4644 36.9083 13.1324 38.7343 13.1324C39.7718 13.1324 40.1971 13.1739 40.8611 13.371C43.0399 13.9831 45.2498 15.5912 46.7645 17.6559C47.3248 18.4132 47.6775 18.6311 48.0821 18.4755C48.4557 18.3406 48.632 18.0812 48.632 17.6974C48.632 17.0022 46.2873 14.4292 44.6895 13.371C41.8053 11.4412 38.6513 10.9432 35.6529 11.9185C34.7606 12.209 33.858 12.624 33.2148 13.039C32.945 13.2154 32.9243 13.205 31.9179 12.6862C31.3576 12.3957 30.6418 12.0741 30.3305 11.9807C30.0193 11.877 29.7495 11.7836 29.7288 11.7732C29.6665 11.7214 30.289 10.0406 30.6521 9.28323C31.3784 7.74773 32.0424 6.89698 34.1278 4.7701C35.3105 3.5666 36.1509 2.63285 36.1924 2.47723C36.2754 2.15561 36.0368 1.6161 35.7774 1.51236C35.684 1.48123 33.8165 1.4501 31.6274 1.4501H27.6434L27.3944 1.67836ZM32.1358 4.37585C30.2579 6.30561 29.044 8.26648 28.3489 10.4867L28.0376 11.4931L27.6019 11.4412C27.3633 11.4205 27.1143 11.379 27.052 11.3582C26.886 11.3064 26.803 9.60485 26.9171 8.4221C27.0416 7.0526 27.4048 5.66235 27.9961 4.25135L28.4838 3.1101H30.9219H33.3704L32.1358 4.37585ZM19.5405 8.2561C19.6235 8.32873 19.7791 8.52586 19.8829 8.70223L20.0696 9.01348L19.6754 9.27285C18.9699 9.75011 18.2644 9.52185 18.2644 8.81636C18.2644 8.13161 19.0218 7.79961 19.5405 8.2561Z" fill="#141414"/>
<path d="M48.1246 5.02793C47.9689 5.17318 47.8652 5.40143 47.8652 5.56743C47.8652 5.73343 47.7614 6.07581 47.6369 6.32481C47.3672 6.86431 46.7136 7.25856 46.1014 7.25856C45.8939 7.25856 45.4893 7.33118 45.1884 7.41418C44.5971 7.59056 42.2316 9.10531 42.1278 9.38543C41.9929 9.72781 42.0552 10.0702 42.3146 10.3192C42.7192 10.7342 43.0304 10.6616 44.3169 9.79006C45.4478 9.04306 45.5204 9.01193 46.3089 8.91856C48.0727 8.72143 49.2658 7.60093 49.4837 5.94093C49.5459 5.43256 49.5356 5.38068 49.2347 5.07981C48.8508 4.69593 48.4669 4.67518 48.1246 5.02793Z" fill="#141414"/>
<path d="M5.0285 8.26636C4.87288 8.40123 4.5305 9.27273 3.92875 11.0987C3.44113 12.5512 3.04688 13.8481 3.04688 13.983C3.04688 14.3046 3.493 14.73 3.83538 14.73C4.00138 14.73 4.97663 14.2009 6.37725 13.3709C8.73238 11.9391 8.971 11.7316 8.805 11.1921C8.71163 10.912 6.70925 8.81623 6.11788 8.39086C5.651 8.04848 5.33975 8.01736 5.0285 8.26636ZM6.08675 11.5864C5.7755 11.7835 5.485 11.9184 5.46425 11.8872C5.43313 11.8561 5.51613 11.5241 5.64063 11.1506L5.86888 10.4555L6.2735 10.8497L6.66775 11.2336L6.08675 11.5864Z" fill="#141414"/>
<path d="M14.3949 20.8919C12.9216 21.8879 12.0916 23.6516 12.2057 25.571C12.351 28.2374 14.2911 30.2916 16.8434 30.468C18.742 30.6029 22.0827 29.2852 23.2655 27.9365C23.722 27.4281 23.8361 27.0961 23.7012 26.733C23.639 26.567 22.3525 25.571 20.0389 23.8902C15.588 20.6532 15.4116 20.5391 15.1419 20.5391C15.0174 20.5391 14.6854 20.6947 14.3949 20.8919ZM18.4515 24.7929L21.7404 27.1687L21.2424 27.48C20.0389 28.2477 17.9327 28.9014 16.8952 28.8184C15.7436 28.725 14.7684 28.0195 14.177 26.8679C13.9176 26.3595 13.8865 26.1935 13.8865 25.2597C13.8865 24.326 13.9176 24.1704 14.177 23.6516C14.4156 23.1951 15.0277 22.4066 15.1419 22.4066C15.1626 22.4066 16.6462 23.4752 18.4515 24.7929Z" fill="#141414"/>
<path d="M34.7265 23.4678C32.5063 25.0759 30.6388 26.4662 30.5662 26.5492C29.8295 27.5037 32.0083 29.2882 34.9444 30.1389C37.258 30.8029 38.8765 30.5021 40.3498 29.1326C42.0202 27.5659 42.487 25.0656 41.4807 22.9594C40.9412 21.8078 39.6235 20.5421 38.9803 20.5421C38.8558 20.5421 37.0713 21.7663 34.7265 23.4678ZM39.582 22.9906C41.1175 24.9929 40.2253 28.0328 37.9117 28.7072C37.1958 28.9147 36.3762 28.8421 35.2038 28.4789C34.2493 28.1781 32.4752 27.3169 32.527 27.1717C32.5789 27.0264 38.9907 22.4096 39.0944 22.4511C39.1567 22.4614 39.3745 22.7104 39.582 22.9906Z" fill="#141414"/>
<path d="M10.7854 35.698C10.5882 35.8536 10.5156 36.0092 10.5156 36.279C10.5156 36.6006 10.9617 37.2542 13.7941 41.176C15.5994 43.666 17.2075 45.824 17.3735 45.9796C17.5499 46.156 17.7989 46.2701 17.9649 46.2701C18.1412 46.2701 18.9609 45.8343 20.1436 45.1288C21.1915 44.496 22.063 43.9876 22.0941 43.9876C22.1149 43.9876 23.1835 44.6827 24.47 45.5438C25.9744 46.5398 26.9081 47.1001 27.0845 47.1001C27.2401 47.1001 28.5059 46.4361 30.0932 45.5335L32.8322 43.9668L34.2432 45.0355C35.0214 45.6165 35.7891 46.1456 35.9344 46.1975C36.5465 46.4257 36.5672 46.405 40.1466 41.4768C42.0245 38.9038 43.6015 36.694 43.643 36.5798C43.8298 36.113 43.4147 35.4801 42.9375 35.4801C42.7922 35.4801 41.2775 36.1752 39.5656 37.0363C37.8537 37.8871 36.4116 38.5926 36.3597 38.5926C36.3079 38.5926 35.3949 37.8871 34.3262 37.0363C32.853 35.8536 32.3135 35.4801 32.0852 35.4801C31.8777 35.4801 31.0892 35.947 29.4604 37.026L27.126 38.5822L25.1859 37.026C23.7334 35.864 23.1835 35.4801 22.9656 35.4801C22.644 35.4801 22.4676 35.6046 20.2059 37.4202C19.3966 38.0635 18.6911 38.5926 18.6392 38.5926C18.577 38.5926 16.9585 37.8871 15.0287 37.0363C13.099 36.1752 11.4182 35.4801 11.2937 35.4801C11.1692 35.4801 10.941 35.5735 10.7854 35.698ZM33.9112 38.8623C35.8306 40.3978 35.924 40.4601 36.2145 40.4601C36.3494 40.4601 37.252 40.0555 38.2272 39.5678C39.2025 39.0802 40.0117 38.6963 40.0325 38.7171C40.0636 38.7586 36.1419 44.1328 36.0485 44.1743C36.007 44.1847 35.3534 43.7282 34.5856 43.1576C33.6726 42.4728 33.1124 42.1201 32.936 42.1201C32.7804 42.1201 31.5042 42.7841 29.948 43.6763C28.4436 44.5271 27.1882 45.2326 27.1467 45.2326C27.0949 45.2326 26.0159 44.5271 24.7294 43.6763C23.308 42.7218 22.2912 42.1201 22.1356 42.1201C22.0007 42.1201 21.0566 42.6181 20.0399 43.2198C19.0231 43.832 18.1724 44.3092 18.1516 44.2885C17.9856 44.0913 13.9394 38.4785 13.9394 38.4473C13.9394 38.4266 14.9769 38.8623 16.2426 39.433C17.5084 39.9932 18.6704 40.4601 18.8364 40.4601C19.0439 40.4601 19.5938 40.0762 21.0047 38.9557C22.0319 38.1257 22.9137 37.4513 22.9552 37.4513C22.9864 37.4513 23.6919 37.9908 24.5219 38.6548C26.5761 40.3045 26.794 40.4601 27.1052 40.4601C27.2816 40.4601 28.1946 39.9102 29.7094 38.9038C31.7014 37.5758 32.0541 37.3787 32.1994 37.4928C32.2824 37.5655 33.0605 38.188 33.9112 38.8623Z" fill="#141414"/>
</svg>
