<svg width="104" height="106" viewBox="0 0 104 106" fill="none" xmlns="http://www.w3.org/2000/svg">
<path d="M1.13885 1.03891C0.248228 1.48422 -0.15021 2.4686 0.201353 3.33578C0.365415 3.71078 0.69354 4.13266 0.927915 4.24985C1.16229 4.39047 2.47479 4.48422 3.88104 4.48422C6.2951 4.48422 6.50604 4.5311 8.05292 5.25766C11.4982 6.92172 14.8967 10.0623 16.842 13.367C21.131 20.703 20.381 30.3592 14.9904 36.7577C13.7482 38.2342 13.4904 38.4217 11.0998 39.4764C8.00604 40.8358 7.70135 41.0702 7.70135 42.242C7.70135 42.9217 7.84198 43.2264 8.31073 43.6014C8.66229 43.8827 9.13104 44.0936 9.38885 44.0936C9.64667 44.0936 11.1232 43.5311 12.6935 42.8514L15.5529 41.6327L18.2482 41.6561C23.2873 41.6795 27.0139 43.2264 30.5529 46.7889C34.2092 50.4217 35.592 53.5623 35.7795 58.6483C35.8732 61.1327 35.8029 61.8827 35.381 63.5233C34.6076 66.4998 33.8107 67.8358 31.2795 70.3436C29.2404 72.3592 29.0295 72.6405 29.0295 73.4373C29.0295 74.0936 29.1701 74.4217 29.6389 74.7733C30.7404 75.6405 31.1857 75.453 33.8576 72.9217C36.0607 70.8592 36.5295 70.5311 37.842 70.1092C43.6076 68.3514 50.0529 69.3358 55.256 72.7811C58.3967 74.867 61.5607 78.8748 62.8967 82.3905C63.5764 84.2186 64.1857 86.867 64.1857 88.0623C64.1857 88.5077 63.506 90.4764 62.6154 92.6092C60.9045 96.7342 60.881 97.1327 62.1232 98.0702C62.8498 98.6092 63.7404 98.492 64.3498 97.7655C64.5607 97.5077 65.4045 95.7264 66.2248 93.7577C67.0217 91.8123 67.8185 90.0545 67.9592 89.8905C68.5217 89.2108 71.5451 87.3827 73.3029 86.6327C76.1623 85.4373 78.4123 84.992 81.6467 85.0389C85.0451 85.0623 87.2482 85.6014 90.3185 87.0545C93.9514 88.8123 96.881 91.4842 99.0373 95.0233L99.9279 96.4764L100.045 100.25C100.162 104.351 100.326 104.82 101.592 105.125C102.248 105.289 103.444 104.75 103.654 104.211C103.842 103.695 103.842 2.30453 103.654 1.78891C103.233 0.687347 105.6 0.734222 51.9514 0.734222C11.9435 0.734222 1.6076 0.804535 1.13885 1.03891ZM42.2482 5.23422C46.8654 7.69516 49.467 13.2264 48.4826 18.5702C48.1779 20.2342 46.6076 23.3983 45.6232 24.3358C45.0607 24.8748 41.7326 26.3983 32.7795 30.2186C26.1467 33.0545 20.6857 35.3514 20.6623 35.328C20.6154 35.3045 20.967 34.3905 21.4357 33.2889C24.2014 26.7264 23.9904 19.2264 20.8732 13.0389C19.5842 10.4373 18.342 8.74985 16.1154 6.52328L14.0529 4.48422H27.4357H40.7951L42.2482 5.23422ZM67.1389 5.23422C69.1545 6.5936 70.3264 9.33578 69.9279 11.7264C69.8576 12.242 69.4357 13.203 69.0373 13.8592L68.2873 15.078L59.8498 18.6639C55.2092 20.6327 51.3889 22.2264 51.3654 22.203C51.342 22.1795 51.5295 21.4764 51.7873 20.6561C52.7717 17.492 52.6076 13.5077 51.3654 10.3436C50.7092 8.67953 49.0685 6.0311 48.2951 5.32797C48.0139 5.07016 47.7795 4.78891 47.7795 4.67172C47.7795 4.57797 51.881 4.48422 56.8967 4.48422H66.0139L67.1389 5.23422ZM92.4279 4.69516C92.217 4.88266 73.9592 12.6873 73.7248 12.6873C73.6545 12.6873 73.6779 12.0311 73.7248 11.2108C73.8654 9.49985 73.3732 7.24985 72.506 5.70297C72.1779 5.11703 71.9201 4.62485 71.9201 4.57797C71.9201 4.5311 76.5842 4.48422 82.2795 4.48422C88.0685 4.48422 92.5451 4.57797 92.4279 4.69516ZM86.6857 15.2655C80.3342 21.4998 79.7482 22.0155 79.5607 21.5233C78.7639 19.4842 78.0139 18.2889 76.8889 17.2108C76.0217 16.367 75.717 15.9452 75.9279 15.8514C76.1154 15.7811 80.0529 14.0936 84.6935 12.1248C89.3342 10.1327 93.2482 8.49203 93.3654 8.49203C93.506 8.49203 90.4826 11.5389 86.6857 15.2655ZM93.0139 19.5077C91.0451 24.1952 89.3107 28.3905 89.1232 28.8123L88.7951 29.6092L87.5998 28.2967C86.4279 27.0077 83.6389 25.3436 82.6779 25.3436C82.4201 25.3436 82.2326 25.2733 82.2326 25.1795C82.2326 24.9452 96.3654 10.8123 96.4826 10.9061C96.506 10.953 94.9592 14.8202 93.0139 19.5077ZM100.045 22.6248V32.5858L98.4748 31.8358C97.0217 31.1561 96.6701 31.0858 94.5842 31.0858C92.6623 31.0858 92.3342 31.0389 92.4279 30.7342C92.756 29.7967 99.9045 12.6873 99.9748 12.6873C100.022 12.6873 100.045 17.1639 100.045 22.6248ZM73.256 19.1092C75.3185 20.1639 76.4904 22.8827 75.9045 25.1092C75.6701 26.0467 74.9201 26.8905 69.3889 32.4217C65.9435 35.8905 63.0607 38.703 62.9904 38.703C62.9201 38.703 62.7795 38.0233 62.7092 37.203C62.2873 32.7967 59.4514 28.5077 55.467 26.3045C54.0373 25.5077 53.8732 25.367 54.2482 25.1561C55.4201 24.5467 69.3185 18.6873 69.9279 18.5702C70.7717 18.3827 72.3654 18.6405 73.256 19.1092ZM50.381 28.3905C56.6857 29.5858 60.4357 35.9373 58.5373 42.1248L58.0451 43.742L48.8576 52.7889L39.6935 61.8358L39.5295 58.6483C39.4592 56.8905 39.2248 54.828 39.0139 54.0545C37.092 46.8358 31.842 41.2108 24.9514 38.9373C23.8967 38.5858 23.4514 38.3514 23.6623 38.2342C24.2951 37.8827 45.1076 29.0233 46.256 28.6014C47.6154 28.1092 48.5998 28.0623 50.381 28.3905ZM82.256 29.1405C83.6623 29.6092 85.0217 30.7108 85.7482 31.9764C86.9904 34.1327 87.0842 33.7342 83.1467 43.2264L79.5607 51.8514L78.7639 50.328C76.4904 46.0389 71.5685 42.7577 66.6935 42.2889C65.8264 42.2186 65.1232 42.1014 65.1232 42.0545C65.1232 41.8436 78.0842 29.2108 78.4592 29.0467C79.0685 28.7889 81.3889 28.8358 82.256 29.1405ZM96.717 35.1873C97.9826 35.7498 98.7795 36.3827 99.506 37.3436L100.045 38.0936V47.328V56.5858L99.2951 55.953C97.9357 54.8748 95.5217 53.5155 93.9514 52.9764C91.7248 52.2264 87.4592 52.0858 85.0451 52.7186C84.0842 52.9764 83.2639 53.1639 83.217 53.117C83.0998 52.9998 89.967 36.5233 90.2717 36.1483C90.4357 35.9608 91.092 35.5623 91.7248 35.2811C93.2248 34.578 95.2873 34.5311 96.717 35.1873ZM67.9123 46.3202C72.0842 47.4217 75.5295 50.7733 76.7014 54.8748C76.9123 55.578 77.0998 56.492 77.1232 56.8905C77.1467 57.3827 75.5295 61.5545 72.0373 69.9452C69.2248 76.742 66.8576 82.2498 66.8107 82.1795C66.7639 82.1327 66.3654 81.242 65.967 80.2342C63.2951 73.6248 57.2717 68.2577 50.3576 66.3827C48.0373 65.7498 44.4982 65.3514 42.7404 65.5389L41.3342 65.703L50.8498 56.1639C59.7092 47.2811 60.4123 46.6248 61.5139 46.3202C63.0607 45.8983 66.342 45.8983 67.9123 46.3202ZM91.7014 56.3045C93.717 56.703 95.8264 57.8748 97.4904 59.5389C100.233 62.2811 100.045 60.9686 100.045 76.4608V89.8436L97.8654 87.7811C93.7873 83.8905 88.9592 81.7342 83.1701 81.242C79.8889 80.9373 75.1779 81.7811 71.9904 83.2342C71.1467 83.6327 70.4201 83.9139 70.3967 83.8905C70.3498 83.8436 72.6232 78.2889 75.4357 71.5155C78.6467 63.7577 80.7326 58.9998 81.0842 58.6483C81.9045 57.8514 84.506 56.6092 85.9826 56.3045C88.4435 55.8123 89.1701 55.8123 91.7014 56.3045Z" fill="#FBFAF4" fill-opacity="0.18"/>
</svg>
