<svg width="65" height="65" viewBox="0 0 65 65" fill="none" xmlns="http://www.w3.org/2000/svg">
<path fill-rule="evenodd" clip-rule="evenodd" d="M8.51887 5.77626C8.88057 5.34326 9.09847 4.78442 9.09847 4.17433C9.09847 2.79914 7.99137 1.68433 6.62569 1.68433C5.26036 1.68433 4.15347 2.79857 4.1529 4.17327L4.14927 4.17327C2.78359 4.17327 1.67649 5.28808 1.67649 6.66327C1.67649 7.17594 1.83035 7.65242 2.09411 8.04845C1.1315 8.38908 0.441406 9.31251 0.441406 10.3983C0.441406 11.3266 0.945918 12.1363 1.69391 12.5644C1.83976 13.7996 2.88344 14.7573 4.14927 14.7573C4.4468 14.7573 4.73205 14.7044 4.99626 14.6074C5.49759 15.794 6.79408 16.7843 8.51642 17.3521C8.49107 17.5208 8.47803 17.6925 8.47803 17.8667C8.47803 19.7654 10.0287 21.3806 12.1923 21.9776C12.1874 22.0604 12.1848 22.1438 12.1848 22.2278C12.1848 23.9135 13.2033 25.3756 14.6935 26.1003C14.6722 26.2597 14.6612 26.4217 14.6612 26.5858C14.6612 27.7447 15.2068 28.7979 16.0966 29.5785C15.9666 30.0071 15.8963 30.4649 15.8963 30.9406C15.8963 31.4194 15.9675 31.8801 16.099 32.311C15.6489 32.2311 15.1647 32.1877 14.6604 32.1877C13.8612 32.1877 13.1126 32.2967 12.4701 32.4869C12.0415 31.1917 11.2447 30.3212 10.3325 30.3212C10.3263 30.3212 10.3201 30.3213 10.3139 30.3214C10.3262 30.2203 10.3326 30.1156 10.3326 30.0084C10.3326 29.149 9.91745 28.4522 9.40532 28.4522C8.95711 28.4522 8.58317 28.9859 8.49681 29.6953C8.49039 29.6952 8.48396 29.6951 8.47752 29.6951C7.11184 29.6951 6.00474 32.2034 6.00474 35.2976C6.00474 38.3918 7.11184 40.9001 8.47752 40.9001C9.20912 40.9001 9.8665 40.1803 10.3192 39.0362L10.3325 39.0363C11.3749 39.0363 12.2667 37.8995 12.6305 36.2911C13.2358 36.4533 13.9268 36.5452 14.6604 36.5452C15.6299 36.5452 16.5249 36.3846 17.2464 36.1135C17.447 36.5426 17.8996 36.9228 18.5212 37.2123C18.7358 38.1005 19.1661 38.8671 19.7336 39.4118C19.6491 39.7926 19.6047 40.1867 19.6047 40.5903C19.6047 42.9016 21.0601 44.9032 23.1815 45.876C21.2775 47.5187 20.8867 50.2973 22.3376 52.2163C22.8306 52.8685 23.4753 53.3405 24.1933 53.6243C24.2838 53.7825 24.3853 53.9365 24.4978 54.0854C24.7903 54.4723 25.1362 54.7958 25.5191 55.0542C24.3015 55.9905 23.6494 57.1899 24.0622 57.7359C24.4758 58.283 25.8021 57.9668 27.0245 57.0296L27.0731 56.992C27.0412 57.1239 27.0246 57.2601 27.0246 57.3993C27.0246 58.528 28.1204 59.4562 29.5243 59.567C29.7119 60.6275 30.8741 61.444 32.2797 61.444L32.2908 61.444C32.7813 61.8317 33.4257 62.067 34.1316 62.067C34.2363 62.067 34.3397 62.0618 34.4414 62.0517L34.4413 62.0654C34.4413 63.0968 35.6868 63.9329 37.2232 63.9329C38.1906 63.9329 39.0426 63.6014 39.5411 63.0984C39.9201 63.5843 40.9532 63.9329 42.1682 63.9329C43.7046 63.9329 44.9501 63.3755 44.9501 62.6879C44.9501 62.5843 44.9218 62.4837 44.8685 62.3875C45.1394 62.576 45.4924 62.69 45.8784 62.69C46.7319 62.69 47.4239 62.1326 47.4239 61.445C47.4239 61.3873 47.419 61.3304 47.4095 61.2748C47.4228 61.2839 47.4364 61.2926 47.4504 61.3006C48.1909 61.7281 49.7056 60.4684 50.8336 58.487C51.9616 56.5056 52.2757 54.5529 51.5352 54.1254C50.7947 53.6979 49.2799 54.9577 48.152 56.939C47.3253 58.3912 46.9357 59.8279 47.0781 60.6601C46.7948 60.3794 46.3626 60.2 45.8784 60.2C45.0248 60.2 44.3329 60.7574 44.3329 61.445C44.3329 61.6479 44.3931 61.8395 44.5 62.0087C44.0036 61.6681 43.1446 61.4429 42.1682 61.4429C41.2892 61.4429 40.5054 61.6254 39.9956 61.9103C39.8781 60.9515 38.6817 60.1979 37.2232 60.1979C37.0864 60.1979 36.952 60.2045 36.8206 60.2173C36.8812 60.013 36.9134 59.7984 36.9134 59.577C36.9134 58.5327 36.1952 57.6385 35.1767 57.2687C35.4929 56.8647 35.6784 56.3727 35.6784 55.842C35.6784 55.0983 35.3141 54.4308 34.7366 53.9745C35.3141 53.5183 35.6784 52.8507 35.6784 52.107C35.6784 51.2211 35.1615 50.4433 34.3829 50.0019C34.8057 49.5652 35.0616 48.9953 35.0616 48.3721C35.0616 47.4327 34.4805 46.6149 33.6225 46.1908C33.7521 45.9033 33.8234 45.5891 33.8234 45.2601C33.8234 44.4902 33.433 43.802 32.8198 43.3452C34.0977 43.1202 35.0616 42.1119 35.0616 40.9021L35.0616 40.898C35.164 40.9014 35.267 40.9032 35.3706 40.9032C36.5686 40.9032 37.6909 40.6697 38.6542 40.2626C38.7946 40.2722 38.9362 40.277 39.0789 40.277C39.6703 40.277 40.2432 40.1936 40.7876 40.0373C41.2283 40.1936 41.6921 40.277 42.1708 40.277C45.0729 40.277 47.4255 37.2113 47.4255 33.4295C47.4255 33.3774 47.425 33.3255 47.4241 33.2737C48.4837 32.8964 49.2486 31.891 49.2775 30.7018C51.4714 30.3023 52.9883 29.4447 52.9883 28.4511C52.9883 28.4044 52.9849 28.3579 52.9783 28.3118C55.5043 27.971 57.315 27.0477 57.315 25.9622C57.315 25.5 56.9868 25.0673 56.4149 24.6964C57.7263 24.2408 58.5501 23.5824 58.5501 22.8502C58.5501 22.6173 58.4667 22.3918 58.3107 22.1779C61.2701 21.9462 63.4966 20.942 63.4966 19.7383C63.4966 18.8311 62.2321 18.0373 60.3424 17.602C60.3857 17.4858 60.4082 17.367 60.4082 17.2462C60.4082 15.871 57.502 14.7562 53.9171 14.7562C53.522 14.7562 53.1352 14.7697 52.7595 14.7957C51.6019 14.3845 50.0528 14.1332 48.3506 14.1332C44.7657 14.1332 41.8596 15.248 41.8596 16.6232C41.8596 16.9203 41.9953 17.2053 42.2442 17.4696C41.2361 17.9083 40.6245 18.4844 40.6245 19.1152C40.6245 19.4112 40.7591 19.6951 41.0061 19.9584C39.9979 20.3972 39.3863 20.9733 39.3863 21.6042C39.3863 21.8331 39.4668 22.0548 39.6176 22.2653C38.3365 22.7201 37.5345 23.3707 37.5345 24.0931C37.5345 24.2627 37.5787 24.4283 37.6629 24.5884C36.0833 25.0426 35.0612 25.7665 35.0612 26.5821C35.0612 26.9512 35.2706 27.3016 35.6463 27.6167C34.8403 28.1475 34.1526 28.8597 33.6347 29.6992C33.595 29.6975 33.555 29.6966 33.5148 29.6966C31.9784 29.6966 30.7329 30.9508 30.7329 32.4979C30.7329 32.6492 30.7448 32.7976 30.7678 32.9424C29.8902 33.5772 29.2648 34.3924 29.0084 35.3039C28.1325 34.9025 27.1431 34.6765 26.0957 34.6765C25.8603 34.6765 25.6278 34.688 25.3988 34.7102C25.2706 34.5685 25.113 34.4348 24.93 34.3113C24.6829 33.5153 24.2579 32.8347 23.718 32.3501C23.8573 31.908 23.9329 31.4339 23.9329 30.9406C23.9329 30.4656 23.8628 30.0084 23.7332 29.5803C24.6242 28.7996 25.1706 27.7456 25.1706 26.5858C25.1706 24.6228 23.6054 22.963 21.4534 22.4178C21.4563 22.3548 21.4578 22.2914 21.4578 22.2278C21.4578 20.763 20.6888 19.4671 19.5095 18.677C19.5726 18.4145 19.6055 18.1436 19.6055 17.8667C19.6055 16.8601 19.1698 15.9333 18.438 15.1955C18.7924 14.6775 18.9882 14.1087 18.9882 13.5118C18.9882 11.5705 16.9169 9.92563 14.0551 9.36222C13.0403 8.52656 11.481 7.97196 9.71522 7.91339L9.71523 7.90931C9.71523 7.0044 9.23585 6.21223 8.51887 5.77626ZM5.07921 9.11654L5.04765 9.13856C5.02276 9.0959 4.99664 9.05406 4.96935 9.01308C4.98524 9.00745 5.00107 9.00167 5.01682 8.99573C5.03655 9.03664 5.05736 9.07692 5.07921 9.11654Z" fill="#D9AE6A"/>
<path d="M7.89965 0.698181C2.54716 2.45085 -0.240319 6.93134 0.584148 12.4792C0.662668 13.0195 0.767363 13.5203 0.806623 13.5862C0.85897 13.6653 1.4217 14.0079 2.07604 14.3505C6.77419 16.8411 10.7395 21.1503 13.7102 27.0013C14.587 28.7013 15.6994 31.3896 15.5816 31.495C15.5423 31.5345 15.1759 31.5082 14.7571 31.4291C14.3383 31.35 13.7756 31.2841 13.4877 31.2841C12.9381 31.2841 12.9511 31.3369 13.2129 30.4012C13.2652 30.2167 13.1998 30.0322 13.0035 29.8346C12.7287 29.5578 12.2706 29.5447 11.42 29.7819C11.2499 29.8346 11.1975 29.6501 11.119 28.6881C11.0274 27.4757 10.8049 26.9354 10.3992 26.9354C10.0459 26.9354 8.99894 27.6866 8.48856 28.3059C6.68258 30.533 5.85812 33.3399 5.71416 37.8336L5.63564 40.4428L6.02825 40.8513C6.3685 41.1808 6.61715 41.2862 7.58557 41.4575C8.21374 41.5761 8.81573 41.642 8.89425 41.6025C8.98586 41.5629 9.29994 41.1808 9.58785 40.7327C9.96737 40.1397 10.3469 39.7576 10.975 39.349C11.878 38.7429 12.624 37.8863 12.8988 37.122L13.0689 36.6607L14.2467 36.7266C15.5685 36.7925 16.8379 37.0956 17.7016 37.5173L18.2775 37.8072L18.6439 39.2831C19.2328 41.6684 20.5938 44.2117 21.8109 45.1869L22.2558 45.5558L21.5099 47.7434C20.4368 50.8402 20.4368 50.9193 21.523 52.3688C22.3605 53.4889 22.727 53.7525 23.5907 53.8975C24.3497 54.0161 24.5199 54.2664 24.0618 54.6354C23.4598 55.1098 23.2112 55.8346 23.2112 57.1919C23.2112 58.6283 23.2635 58.7074 24.5591 59.0369C25.3967 59.2477 25.4621 59.2477 25.6846 59.0369C25.8285 58.9051 25.9725 58.6152 26.0118 58.378C26.0641 58.1408 26.1819 57.8377 26.2997 57.6927C26.4829 57.4687 26.4829 57.5214 26.4044 58.4043C26.3127 59.5244 26.352 59.6035 27.3597 60.0779C28.315 60.5128 28.7992 60.5128 28.9955 60.0779L29.1395 59.7485L29.7938 60.4733C32.3981 63.4119 36.5989 64.8615 41.5327 64.5057C44.3856 64.2948 45.5372 63.86 48.0237 62.0414C51.7142 59.3399 52.447 58.1408 52.6564 54.4246C52.7742 52.2766 52.6826 51.8417 52.133 51.8417C51.9759 51.8417 51.2954 52.3556 50.5887 53.0014C49.0576 54.4246 48.4817 55.0439 48.0237 55.8214C47.6704 56.4408 47.16 58.2066 47.16 58.8392C47.16 59.0896 47.016 59.3268 46.6758 59.6167C44.9745 61.119 41.2448 61.5407 38.9677 60.4864C37.7637 59.933 36.6513 58.5097 36.1671 56.9152C36.0755 56.6253 35.9577 55.0835 35.9054 53.489C35.7352 49.1271 35.2903 46.5969 34.3349 44.6597L33.8115 43.6055L34.4527 43.0125C36.3896 41.2335 39.2294 40.3637 42.5142 40.5614C43.3125 40.6009 44.3201 40.68 44.752 40.7195C45.2886 40.7723 45.5896 40.7459 45.6419 40.6537C45.6943 40.5746 45.8775 39.9289 46.0476 39.2173C47.0291 35.1453 48.7435 32.4043 51.4786 30.533C52.7219 29.6896 54.4624 28.9912 55.7187 28.833C56.7526 28.7013 56.9227 28.5431 57.0274 27.568C57.2368 25.6703 58.022 24.0363 59.1605 23.1665C60.1028 22.4418 61.032 22.165 62.7725 22.0728C64.8271 21.9674 64.8926 21.8883 64.055 20.162C61.9742 15.8528 56.7002 13.4939 49.1884 13.4939C46.7935 13.4939 42.3048 13.9815 42.0169 14.2714C41.9645 14.3242 41.8075 14.8513 41.6635 15.4311C40.8391 18.9364 38.2217 22.9162 32.8954 28.8067C31.927 29.8741 31.482 30.5066 30.8669 31.6663C30.4351 32.4833 29.8723 33.3926 29.6237 33.6957L29.1526 34.2228L28.1449 34.0779C27.5822 33.9856 26.7184 33.9197 26.2342 33.9197H25.3312L25.1088 33.2872C24.9779 32.9314 24.8601 32.088 24.8209 31.2841C24.7423 29.5447 24.9517 28.6486 25.8285 26.975C26.1819 26.3029 26.4436 25.6703 26.4044 25.5649C26.3651 25.4727 25.8285 24.9983 25.2004 24.5239C22.4129 22.4286 20.5807 19.7271 19.6516 16.3008C19.416 15.4443 19.3637 14.8644 19.3506 12.8614C19.3244 11.0033 19.2721 10.3971 19.1412 10.2654C19.0365 10.1731 18.4214 10.0018 17.7671 9.88319C13.6578 9.14523 10.6871 7.51117 9.66637 5.41588C9.18216 4.40118 9.09055 3.16245 9.40463 1.92373C9.79724 0.395088 9.52241 0.171066 7.89965 0.698181ZM7.92583 2.92525C7.7557 5.87711 9.48315 8.30185 12.8203 9.80413C13.8541 10.2785 15.8302 10.8847 17.0735 11.1219L17.9372 11.2801L18.0157 13.3358C18.0681 14.9699 18.1466 15.6815 18.4083 16.6962C18.8533 18.3698 19.5992 20.0566 20.5415 21.4929C21.2743 22.6262 23.0803 24.5766 24.245 25.499L24.8209 25.9603L24.4152 26.8168C23.5253 28.6354 23.2374 31.0865 23.6692 32.9841C23.787 33.4585 23.8263 33.8802 23.7739 33.9329C23.5645 34.1438 22.4914 34.091 22.0334 33.8538C21.7847 33.7221 21.1173 33.419 20.5546 33.1949L19.5338 32.7733L18.6832 30.2299C17.4661 26.6323 17.1258 25.9998 16.5762 26.3556C16.0658 26.6851 16.092 26.83 17.0473 29.5051C17.5708 30.9283 17.9634 32.1275 17.9372 32.1671C17.8325 32.2725 17.1913 32.0485 17.1913 31.9035C17.1913 31.6399 15.7125 28.0424 15.0843 26.7641C12.0351 20.6627 7.89965 16.0636 2.97903 13.3358C1.98443 12.7823 1.94517 12.7428 1.84048 12.1762C1.69652 11.3723 1.82739 8.9871 2.06295 8.091C2.59951 6.12749 3.96054 4.2694 5.64873 3.20199C6.39468 2.72758 7.67718 2.05551 7.89965 2.04233C7.93891 2.02916 7.952 2.43767 7.92583 2.92525ZM53.9651 15.1939C58.1005 15.9187 60.8618 17.4473 62.393 19.8721C62.6547 20.2674 62.8641 20.6364 62.8641 20.6759C62.8641 20.7155 62.5893 20.7418 62.2621 20.7418C61.49 20.7418 60.2598 21.0581 59.3307 21.5061C58.3361 21.9805 57.0667 23.272 56.5825 24.3262C56.1768 25.1959 55.7972 26.5137 55.7972 27.0277C55.7972 27.3703 55.6926 27.423 54.1614 27.8579C50.1307 28.9648 46.859 32.3252 45.3278 36.9243C45.1184 37.57 44.8829 38.387 44.8044 38.7429L44.6604 39.4017L43.9145 39.3095C41.1139 38.9537 37.8945 39.4281 35.7745 40.5087C34.3742 41.2071 32.2411 43.1047 32.2411 43.645C32.2411 43.7373 32.4112 44.0404 32.6337 44.3039C33.7853 45.7667 34.4135 48.7054 34.5836 53.6207C34.6883 56.4408 34.7275 56.7175 35.0547 57.64C35.7352 59.5376 36.8476 60.8686 38.3788 61.6461C40.3287 62.6476 43.7836 62.6213 45.9691 61.5934C46.6496 61.2639 46.7674 61.2376 46.5842 61.4484C46.257 61.8042 44.752 62.5817 43.8228 62.8585C43.2339 63.0429 42.6058 63.0957 41.3364 63.0957C37.8422 63.0957 35.8923 62.1205 33.8115 59.3268C32.8169 58.009 31.5867 55.492 31.0894 53.792C30.7622 52.6192 30.7361 52.4084 30.8408 51.5782C30.9324 50.8797 30.9324 50.6162 30.8015 50.458C30.5921 50.2076 30.0948 50.1945 29.8593 50.4448C29.7546 50.5503 29.519 51.6177 29.3096 53.0409C29.1133 54.3719 28.917 55.5579 28.8908 55.6897C28.8385 55.861 28.6029 55.9137 27.5429 55.9532C26.3258 55.9928 26.2211 56.0191 25.75 56.4013C25.4752 56.6121 25.148 57.0206 25.0041 57.2842C24.8732 57.5478 24.7031 57.7322 24.6376 57.6927C24.4413 57.5741 24.5068 56.1509 24.7162 55.8346C24.9386 55.5184 25.449 55.3207 26.4567 55.2021C27.3728 55.0835 27.5691 54.8595 27.5036 54.0556C27.412 53.1859 26.9017 52.4611 26.0118 51.9471C25.1219 51.4464 24.9517 51.1169 24.8339 49.6278L24.7423 48.5604L25.1873 48.1124C25.5799 47.717 25.8024 47.638 27.0849 47.3876C28.8385 47.0318 28.917 47.0449 30.2126 48.2178C30.7361 48.6922 31.2726 49.0743 31.4166 49.0743C31.7699 49.0743 31.9793 48.824 31.9793 48.3891C31.9793 48.0992 31.7568 47.8356 30.8669 47.0449C29.3881 45.7535 29.0086 45.6481 27.0849 46.0434L25.7108 46.3202L24.4937 45.5031C23.8263 45.0551 23.0541 44.5016 22.7793 44.2908C21.7585 43.4869 20.6069 41.4707 20.018 39.4676L19.8086 38.7692L20.3844 39.2436C20.7116 39.5072 21.0519 39.718 21.1566 39.718C21.4576 39.718 21.7716 39.349 21.7716 38.9932C21.7716 38.2421 18.5654 36.2127 16.6024 35.7119C15.2021 35.3561 13.527 35.2243 12.1398 35.3693C10.4385 35.5538 10.0066 35.8437 10.3861 36.5685C10.4908 36.753 10.661 36.8189 11.0405 36.8189C11.3284 36.8189 11.564 36.8716 11.564 36.9243C11.564 37.1088 10.3338 38.2289 9.7318 38.5847C9.3392 38.8087 9.01203 39.1514 8.75029 39.5994C8.37078 40.232 8.3446 40.2583 7.89965 40.1792C6.94432 40.0079 6.98358 40.0738 6.98358 38.756C6.99667 34.7236 7.72953 31.5609 9.11672 29.6764C9.41772 29.2547 9.70563 28.9121 9.77106 28.9121C9.82341 28.9121 9.86267 29.2679 9.86267 29.7028C9.86267 30.4144 9.82341 30.533 9.40463 31.0074C8.81573 31.6531 8.30534 32.7996 8.12213 33.8275C7.952 34.8685 8.0567 35.3429 8.50165 35.4484C9.01203 35.5802 9.28685 35.2243 9.39155 34.3019C9.52241 32.9446 10.1768 31.8113 11.0797 31.3237C11.2891 31.2183 11.4854 31.1655 11.5378 31.2051C11.577 31.2578 11.42 31.7717 11.1844 32.3779C10.661 33.7089 10.5694 34.1306 10.7787 34.381C11.0012 34.6445 11.4854 34.6313 11.721 34.3414C11.8257 34.2228 12.0612 33.7748 12.2314 33.3399L12.5455 32.5624L13.6578 32.6415C15.49 32.7733 18.4607 33.6562 20.8556 34.8027L22.3605 35.5143L23.2374 35.3693C24.4021 35.198 26.81 35.198 28.1318 35.3957C28.9824 35.5143 29.2704 35.5143 29.6106 35.3693C30.265 35.1057 31.0763 34.0779 31.9139 32.4702C32.5682 31.2314 32.9608 30.6911 34.2564 29.2547C37.9992 25.1037 40.0277 22.3627 41.4934 19.4767C42.1608 18.1589 42.9722 16.0505 42.9722 15.6024C42.9722 15.2993 43.2339 15.2598 46.8328 14.8908C48.1807 14.759 52.5125 14.9303 53.9651 15.1939ZM24.0749 47.3744C23.5776 47.9674 23.4337 48.5999 23.5253 49.7201C23.5645 50.2735 23.6561 50.9324 23.7347 51.1696C23.944 51.8944 24.4806 52.606 25.0433 52.8959C25.6191 53.1859 26.0903 53.6076 26.0903 53.8184C26.0903 54.082 25.7369 53.937 25.449 53.5417C25.0957 53.0673 24.4283 52.6324 24.0356 52.6324C23.8786 52.6324 23.6169 52.5665 23.4467 52.4874C23.0149 52.2898 22.0334 50.9456 22.0334 50.5635C22.0334 50.379 22.3344 49.3511 22.7008 48.2837L23.3682 46.3202L23.8786 46.6628L24.389 46.9922L24.0749 47.3744ZM51.23 56.0059C50.9159 57.6664 49.9867 58.971 48.1415 60.3019L47.2254 60.974L47.8536 60.3019C48.3378 59.7616 48.4687 59.5376 48.4687 59.1686C48.4687 57.6795 49.0706 56.3617 50.3531 55.0308L51.2823 54.0556L51.3216 54.6618C51.3477 54.9912 51.2954 55.5974 51.23 56.0059ZM32.1887 59.3004C32.5944 59.933 33.3142 60.8554 33.7853 61.3562C34.2433 61.8438 34.5836 62.2523 34.5312 62.2523C34.2826 62.2523 32.6337 61.2507 31.8877 60.6446C30.9978 59.9461 30.278 59.1159 29.6368 58.1144C29.1657 57.3501 29.1395 57.2447 29.4797 57.2447C29.8069 57.2447 30.0032 56.9943 30.0948 56.4408C30.1341 56.1904 30.1995 55.9137 30.2257 55.8083C30.265 55.7028 30.5398 56.1904 30.8539 56.8889C31.1679 57.5873 31.7699 58.6811 32.1887 59.3004ZM28.1842 58.2462C28.1842 58.5625 28.0271 58.826 27.8308 58.826C27.6869 58.826 27.6476 58.7469 27.713 58.5229C27.7523 58.3648 27.7915 58.088 27.7915 57.9036C27.8046 57.5873 27.8046 57.5873 27.9879 57.8245C28.0925 57.9694 28.1842 58.1539 28.1842 58.2462Z" fill="#3E3E3E"/>
<path d="M5.49168 6.68141C5.22994 6.99768 4.86351 7.60387 4.66721 8.03874C4.32695 8.75035 4.30078 8.93484 4.30078 10.3976C4.31387 12.3347 4.51017 12.9673 5.12525 12.9673C5.75341 12.9673 5.85811 12.7169 5.67489 11.6758C5.36081 9.91001 5.63563 8.63175 6.60405 7.34031C7.00974 6.80002 7.00974 6.77366 6.80036 6.44421C6.47319 5.93027 6.04132 6.00934 5.49168 6.68141Z" fill="#3E3E3E"/>
<path d="M8.48803 11.5579C8.1216 11.6501 7.75517 11.7687 7.67665 11.8214C7.41492 11.9796 7.38874 12.4408 7.63739 12.7307C7.85987 13.0074 7.88604 13.0074 8.78903 12.8361C10.6604 12.4803 12.9768 12.8493 15.2277 13.8508C16.0129 14.1934 16.471 14.1671 16.6018 13.7586C16.7589 13.2578 16.5495 13.0074 15.6072 12.5857C13.8667 11.7951 12.5711 11.492 10.7782 11.4393C9.71819 11.4129 8.90681 11.4524 8.48803 11.5579Z" fill="#3E3E3E"/>
<path d="M44.1118 16.3252C44.0071 16.4306 43.8239 16.9314 43.7061 17.4453C42.9732 20.7134 40.3428 24.8513 35.7362 29.9511C34.7678 31.0186 34.0742 31.9015 34.0742 32.0596C34.0742 32.3891 34.4145 32.7317 34.7286 32.7317C34.8725 32.7317 35.5269 32.1255 36.2728 31.3085C41.2719 25.8923 44.1772 21.3723 44.9886 17.7352C45.2111 16.7337 45.1587 16.3647 44.7269 16.2066C44.4259 16.088 44.3212 16.1011 44.1118 16.3252Z" fill="#3E3E3E"/>
<path d="M45.5122 19.2298C45.3159 19.5197 45.3159 19.5856 45.4991 19.8624C45.6431 20.0864 45.944 20.2182 46.6769 20.3763C49.8308 21.0747 52.4613 23.4336 53.4297 26.4513C53.6129 26.9916 54.0186 27.1893 54.4766 26.9389C54.8561 26.7412 54.83 26.2668 54.3719 25.2126C53.0763 22.1421 50.3674 19.9019 47.0172 19.098C45.8917 18.8345 45.7608 18.8477 45.5122 19.2298Z" fill="#3E3E3E"/>
<path d="M42.9447 26.0261C42.6306 26.1974 42.6567 26.54 43.0363 27.7656C43.6775 29.795 43.6775 32.9181 43.0493 35.7777C42.6306 37.5963 42.6306 37.8203 42.9839 38.018C43.4681 38.2684 43.8346 37.9916 44.057 37.1878C44.9338 34.1041 45.104 30.4275 44.4758 27.9632C43.9916 26.1315 43.6121 25.6307 42.9447 26.0261Z" fill="#3E3E3E"/>
<path d="M7.66641 36.8967C7.12985 37.2656 7.41776 38.1354 8.08519 38.1354C8.42544 38.1354 8.81804 37.7532 8.81804 37.4369C8.81804 37.1734 8.37309 36.6858 8.12445 36.6858C8.03284 36.6858 7.82345 36.778 7.66641 36.8967Z" fill="#3E3E3E"/>
</svg>
