<svg width="16" height="16" viewBox="0 0 16 16" fill="none" xmlns="http://www.w3.org/2000/svg">
<path d="M7.76027 0.402734C7.71027 0.433984 7.64465 0.487109 7.61652 0.518359C7.5884 0.549609 7.1259 1.67148 6.5884 3.01211C6.04777 4.34961 5.59465 5.44648 5.5759 5.45273C5.55715 5.45898 4.38215 5.54336 2.9634 5.64023C0.0821463 5.83711 0.197771 5.82148 0.0602712 6.06523C-0.0303538 6.22461 -0.0178538 6.42461 0.0915212 6.55898C0.132146 6.61211 1.01652 7.37148 2.05715 8.24961C3.09777 9.13086 3.9884 9.88711 4.03527 9.93398L4.12277 10.0184L3.47902 12.5871C3.1259 13.9996 2.8384 15.1871 2.8384 15.2246C2.8384 15.3402 2.96965 15.534 3.0884 15.5965C3.14777 15.6309 3.25715 15.6559 3.32902 15.6559C3.44465 15.6559 3.67277 15.5215 5.7259 14.2371L7.99465 12.8152L10.2696 14.2371L12.5415 15.6621L12.7009 15.6496C12.9103 15.6309 13.0353 15.5402 13.1071 15.3527L13.1634 15.209L12.5165 12.6184C12.1603 11.1934 11.8759 10.0152 11.8853 9.99961C11.8946 9.98711 12.8009 9.21211 13.8978 8.28086C15.2603 7.12773 15.9134 6.55273 15.9446 6.48398C16.0134 6.34023 16.0071 6.20273 15.9259 6.05898C15.7915 5.82148 15.9009 5.83711 12.9946 5.63398L10.3853 5.45273L9.4009 3.00898C8.85715 1.66523 8.3884 0.537109 8.35402 0.499609C8.20715 0.33711 7.93527 0.293359 7.76027 0.402734Z" fill="#D9AE6A"/>
</svg>
