<svg width="24" height="24" viewBox="0 0 24 24" fill="none" xmlns="http://www.w3.org/2000/svg">
<path d="M12 1.98779C6.4794 1.98779 1.98803 6.47929 1.98803 11.9998C1.98803 17.5204 6.4794 22.0117 12 22.0117C17.5207 22.0117 22.0121 17.5204 22.0121 11.9998C22.0121 6.47929 17.5207 1.98779 12 1.98779ZM12 23.9998C5.3833 23.9998 0 18.6166 0 11.9998C0 5.38306 5.3833 -0.000118256 12 -0.000118256C18.6168 -0.000118256 24 5.38306 24 11.9998C24 18.6166 18.6168 23.9998 12 23.9998Z" fill="#C60202"/>
<path d="M16.8022 14.5371L14.2649 12L16.8018 9.46302C17.5078 8.75732 17.5757 7.67006 16.9528 7.04717C16.3299 6.42427 15.2429 6.49217 14.5371 7.19787L12 9.73509L9.463 7.198C8.75717 6.49217 7.66979 6.42427 7.04715 7.04717C6.42426 7.66994 6.49215 8.75694 7.19798 9.46277L9.73507 12L7.19798 14.5371C6.49215 15.2429 6.42413 16.3302 7.04703 16.9531C7.66967 17.5758 8.75692 17.5078 9.46275 16.8021L12 14.2649L14.5371 16.8019C15.243 17.5078 16.3302 17.5757 16.953 16.9529C17.5759 16.33 17.5081 15.243 16.8022 14.5371Z" fill="#C60202"/>
</svg>
