<svg width="24" height="24" viewBox="0 0 24 24" fill="none" xmlns="http://www.w3.org/2000/svg">
<path d="M12.0001 1.98799C6.47958 1.98799 1.98805 6.47939 1.98805 11.9999C1.98805 17.5205 6.47958 22.0121 12.0001 22.0121C17.5209 22.0121 22.0121 17.5205 22.0121 11.9999C22.0121 6.47939 17.5209 1.98799 12.0001 1.98799ZM12.0001 24C5.38322 24 0 18.6168 0 11.9999C0 5.38315 5.38322 -6.10352e-05 12.0001 -6.10352e-05C18.617 -6.10352e-05 24.0002 5.38315 24.0002 11.9999C24.0002 18.6168 18.617 24 12.0001 24Z" fill="#59AD00"/>
<path d="M17.9946 7.56494C17.3674 6.93774 16.2864 6.99223 15.5928 7.68581L10.1962 13.0823L8.40751 11.2934C7.71368 10.5997 6.63287 10.5452 6.00567 11.1726C5.37822 11.8 5.43258 12.8808 6.12615 13.5743L8.86605 16.3145C9.2246 16.6728 9.68605 16.859 10.1352 16.8704C10.1516 16.8712 10.1681 16.8703 10.1844 16.8705C10.2093 16.8704 10.2342 16.8714 10.2589 16.8704C10.7076 16.8586 11.1687 16.6724 11.5267 16.3145L17.8739 9.96691C18.5677 9.27334 18.6218 8.19227 17.9946 7.56494Z" fill="#59AD00"/>
</svg>
